<svg width="40" height="34" viewBox="0 0 40 34" fill="none" xmlns="http://www.w3.org/2000/svg">
<path d="M30.0424 5.55594C27.4817 2.14955 23.7711 0 19.6411 0C15.5111 0 11.8005 2.14955 9.23981 5.55594C9.80587 6.94607 10.6436 8.20902 11.7037 9.27067C13.0138 10.5816 14.6276 11.5477 16.4011 12.0829C18.1746 12.6181 20.0528 12.7057 21.8684 12.338C23.6839 11.9702 25.3804 11.1585 26.8066 9.97516C28.2328 8.79184 29.3444 7.27366 30.0424 5.55594Z" fill="#0F003A"/>
<path d="M7.37131 7.25621C7.53204 7.37287 7.70517 7.47135 7.88756 7.54986C9.85283 11.5289 13.9242 14.5741 18.5969 14.8296V33.6969C15.0623 33.4854 12.2317 31.7029 9.85284 28.922C9.64751 29.0777 9.49498 29.2186 9.35418 29.3508C9.15664 29.538 9.0187 29.7794 8.95764 30.0448C8.89659 30.3102 8.91515 30.5877 9.011 30.8425C9.14006 31.1935 9.17355 31.5725 9.10803 31.9407C9.04251 32.3089 8.88035 32.6531 8.63816 32.9378C8.39598 33.2226 8.0825 33.4377 7.72987 33.5612C7.37723 33.6847 6.99813 33.712 6.63146 33.6404C6.26479 33.5688 5.92374 33.4009 5.64329 33.1538C5.36284 32.9067 5.15308 32.5894 5.03552 32.2344C4.91796 31.8794 4.89684 31.4995 4.97432 31.1337C5.0518 30.7678 5.2251 30.4291 5.47643 30.1524C5.55199 30.0693 5.63441 29.9927 5.72282 29.9234C5.77366 29.8769 5.82977 29.8364 5.89001 29.803C6.21267 28.6343 6.97825 27.58 8.22195 26.6139C6.82221 24.2191 5.96599 21.5453 5.71402 18.7821C5.53263 18.7839 5.35147 18.7956 5.17137 18.8174C4.92675 18.8503 4.69586 18.9498 4.50393 19.1052C4.31201 19.2606 4.16644 19.4658 4.08314 19.6983C3.94771 20.059 3.71627 20.3757 3.4139 20.6141C3.11153 20.8525 2.74976 21.0035 2.36778 21.0508C1.98581 21.0981 1.59819 21.0398 1.24693 20.8823C0.89567 20.7248 0.594153 20.4741 0.375057 20.1573C0.15596 19.8405 0.0276401 19.4697 0.00398716 19.0852C-0.0196658 18.7006 0.0622506 18.3168 0.240873 17.9755C0.419495 17.6342 0.688006 17.3484 1.01731 17.1489C1.34662 16.9494 1.72417 16.844 2.10906 16.844C2.19437 16.8455 2.27954 16.8514 2.36425 16.8616C2.67935 16.6347 3.029 16.4602 3.39969 16.3448C4.12365 16.1181 4.87636 15.9964 5.63482 15.9836C5.7096 14.0246 6.07945 12.0882 6.73186 10.2397C6.25794 9.97004 5.811 9.65536 5.39723 9.30004C4.99396 8.93941 4.66339 8.50481 4.42339 8.01971C4.2963 7.77453 4.10194 7.57078 3.86314 7.4324C3.67934 7.32174 3.51156 7.18638 3.36449 7.0301C3.10375 6.74866 2.92471 6.40131 2.84666 6.0255C2.76861 5.64969 2.79451 5.25968 2.92158 4.89753C3.04865 4.53537 3.27206 4.21482 3.56772 3.97043C3.86339 3.72604 4.22009 3.56708 4.59935 3.51071C4.97861 3.45434 5.36604 3.5027 5.71987 3.65055C6.0737 3.79841 6.38051 4.04015 6.60719 4.34973C6.83388 4.6593 6.97184 5.02496 7.00622 5.40726C7.0406 5.78956 6.97008 6.174 6.80226 6.51913C6.93363 6.80486 7.12823 7.05691 7.37131 7.25621Z" fill="#0F003A"/>
<path d="M32.6287 7.31523C32.468 7.43189 32.2948 7.53037 32.1124 7.60888C30.1472 11.5879 26.0758 14.6331 21.4031 14.8886V33.7559C24.9377 33.5445 27.7683 31.762 30.1472 28.9811C30.3525 29.1367 30.505 29.2776 30.6458 29.4098C30.8434 29.597 30.9813 29.8384 31.0424 30.1038C31.1034 30.3692 31.0848 30.6467 30.989 30.9016C30.8599 31.2525 30.8265 31.6316 30.892 31.9998C30.9575 32.368 31.1197 32.7121 31.3618 32.9968C31.604 33.2816 31.9175 33.4967 32.2701 33.6202C32.6228 33.7437 33.0019 33.771 33.3685 33.6994C33.7352 33.6278 34.0763 33.4599 34.3567 33.2128C34.6372 32.9658 34.8469 32.6485 34.9645 32.2935C35.082 31.9385 35.1032 31.5586 35.0257 31.1927C34.9482 30.8268 34.7749 30.4882 34.5236 30.2115C34.448 30.1283 34.3656 30.0517 34.2772 29.9824C34.2263 29.9359 34.1702 29.8955 34.11 29.862C33.7873 28.6933 33.0217 27.6391 31.778 26.6729C33.1778 24.2781 34.034 21.6043 34.286 18.8412C34.4674 18.8429 34.6485 18.8546 34.8286 18.8764C35.0733 18.9093 35.3041 19.0088 35.4961 19.1642C35.688 19.3196 35.8336 19.5248 35.9169 19.7574C36.0523 20.118 36.2837 20.4347 36.5861 20.6731C36.8885 20.9115 37.2502 21.0626 37.6322 21.1098C38.0142 21.1571 38.4018 21.0989 38.7531 20.9414C39.1043 20.7838 39.4058 20.5331 39.6249 20.2163C39.844 19.8995 39.9724 19.5288 39.996 19.1442C40.0197 18.7596 39.9377 18.3759 39.7591 18.0346C39.5805 17.6932 39.312 17.4074 38.9827 17.2079C38.6534 17.0085 38.2758 16.903 37.8909 16.903C37.8056 16.9045 37.7205 16.9104 37.6358 16.9207C37.3207 16.6937 36.971 16.5192 36.6003 16.4038C35.8763 16.1771 35.1236 16.0555 34.3652 16.0426C34.2904 14.0836 33.9205 12.1472 33.2681 10.2988C33.7421 10.0291 34.189 9.71438 34.6028 9.35906C35.006 8.99843 35.3366 8.56383 35.5766 8.07873C35.7037 7.83356 35.8981 7.6298 36.1369 7.49142C36.3207 7.38076 36.4884 7.2454 36.6355 7.08912C36.8962 6.80769 37.0753 6.46033 37.1533 6.08452C37.2314 5.70871 37.2055 5.3187 37.0784 4.95655C36.9513 4.59439 36.7279 4.27384 36.4323 4.02945C36.1366 3.78506 35.7799 3.6261 35.4007 3.56973C35.0214 3.51337 34.634 3.56172 34.2801 3.70957C33.9263 3.85743 33.6195 4.09917 33.3928 4.40875C33.1661 4.71832 33.0282 5.08398 32.9938 5.46628C32.9594 5.84859 33.0299 6.23302 33.1977 6.57815C33.0664 6.86388 32.8718 7.11593 32.6287 7.31523Z" fill="#0F003A"/>
</svg>
