<svg width="429" height="330" viewBox="0 0 429 330" fill="none" xmlns="http://www.w3.org/2000/svg">
<path opacity="0.1" d="M196.58 291.394C295.04 291.394 374.858 285.19 374.858 277.536C374.858 269.882 295.04 263.677 196.58 263.677C98.1196 263.677 18.3018 269.882 18.3018 277.536C18.3018 285.19 98.1196 291.394 196.58 291.394Z" fill="#6C63FF"/>
<g opacity="0.1">
<path opacity="0.1" d="M354.48 198.569C353.414 195.331 349.093 193.84 344.832 195.243C344.218 195.443 343.624 195.7 343.057 196.011C342.785 195.936 342.503 195.868 342.218 195.818C342.451 194.887 342.54 193.925 342.483 192.966C343.953 191.982 345.145 190.636 345.946 189.057C346.747 187.478 347.128 185.719 347.055 183.95C348.521 182.963 349.71 181.615 350.507 180.037C351.305 178.458 351.685 176.701 351.61 174.934C353.088 173.959 354.279 172.608 355.063 171.02C357.118 166.946 356.267 162.369 353.158 160.794C350.05 159.219 345.859 161.248 343.804 165.321C342.989 166.893 342.608 168.655 342.701 170.424C341.235 171.411 340.046 172.758 339.248 174.337C338.451 175.916 338.071 177.673 338.145 179.44C336.679 180.427 335.49 181.775 334.693 183.353C333.895 184.932 333.515 186.689 333.59 188.456C332.12 189.442 330.928 190.79 330.127 192.369C329.327 193.948 328.945 195.707 329.017 197.477C327.54 198.451 326.348 199.802 325.565 201.391C325.179 202.156 324.886 202.966 324.692 203.801C324.177 203.047 323.549 202.377 322.83 201.815C322.748 201.173 322.607 200.541 322.411 199.925C321.009 195.654 317.251 193.05 314.021 194.117C310.791 195.184 309.298 199.505 310.699 203.776C311.272 205.607 312.376 207.227 313.87 208.429C313.952 209.07 314.093 209.703 314.289 210.319C315.103 212.796 316.71 214.711 318.547 215.673C318.384 216.208 318.268 216.756 318.199 217.311C316.467 218.979 315.351 221.187 315.036 223.572C313.302 225.241 312.187 227.451 311.873 229.838C311.015 230.663 310.305 231.631 309.776 232.698C307.716 236.771 308.568 241.353 311.676 242.924C314.784 244.494 318.975 242.474 321.035 238.397C321.578 237.333 321.932 236.184 322.083 234.999C323.816 233.331 324.931 231.123 325.246 228.738C326.98 227.069 328.095 224.859 328.409 222.472C330.13 220.8 331.232 218.592 331.534 216.211C333.274 214.542 334.393 212.329 334.705 209.937C335.239 209.43 335.716 208.867 336.127 208.257C337.841 208.609 339.618 208.497 341.274 207.933C341.888 207.733 342.483 207.476 343.049 207.165C344.904 207.655 346.863 207.585 348.678 206.963C352.928 205.573 355.541 201.811 354.48 198.569Z" fill="#3F3D56"/>
<g opacity="0.1">
<path opacity="0.1" d="M346.958 185.802C346.518 186.236 346.035 186.623 345.515 186.957C345.581 188.156 345.423 189.356 345.05 190.497C345.38 190.04 345.674 189.559 345.931 189.057C346.451 188.036 346.798 186.937 346.958 185.802Z" fill="black"/>
<path opacity="0.1" d="M351.514 176.786C351.074 177.219 350.59 177.606 350.071 177.941C350.137 179.139 349.979 180.34 349.605 181.481C349.936 181.023 350.231 180.54 350.486 180.036C351.005 179.017 351.352 177.918 351.514 176.786Z" fill="black"/>
<path opacity="0.1" d="M341.182 173.43C341.144 172.812 341.168 172.192 341.254 171.579C340.439 172.382 339.762 173.314 339.248 174.338C338.995 174.842 338.782 175.366 338.611 175.904C339.305 174.925 340.177 174.086 341.182 173.43Z" fill="black"/>
<path opacity="0.1" d="M312.268 227.994C312.634 227.483 313.048 227.008 313.505 226.575C313.576 226.005 313.699 225.443 313.87 224.895C313.505 225.386 313.184 225.907 312.909 226.453C312.656 226.95 312.441 227.465 312.268 227.994Z" fill="black"/>
<path opacity="0.1" d="M315.43 221.737C315.797 221.226 316.211 220.75 316.668 220.318C316.736 219.763 316.853 219.215 317.016 218.68C316.668 219.156 316.359 219.661 316.093 220.188C315.834 220.687 315.612 221.205 315.43 221.737Z" fill="black"/>
<path opacity="0.1" d="M342.399 194.818C341.961 195.252 341.479 195.637 340.96 195.969C341.017 196.928 340.928 197.889 340.696 198.821C340.979 198.87 341.259 198.934 341.535 199.014C342.101 198.703 342.695 198.446 343.309 198.245C347.579 196.843 351.896 198.333 352.957 201.571C353.22 202.385 353.267 203.254 353.091 204.091C354.496 202.436 355.079 200.421 354.475 198.573C353.41 195.335 349.089 193.844 344.827 195.247C344.213 195.447 343.619 195.704 343.053 196.015C342.78 195.94 342.499 195.873 342.214 195.822C342.294 195.486 342.352 195.154 342.399 194.818Z" fill="black"/>
<path opacity="0.1" d="M310.707 231.14C310.342 231.63 310.021 232.152 309.747 232.698C309.492 233.204 309.276 233.729 309.101 234.268C309.475 233.755 309.896 233.277 310.359 232.841C310.424 232.264 310.54 231.695 310.707 231.14Z" fill="black"/>
<path opacity="0.1" d="M336.606 182.447C336.568 181.829 336.591 181.208 336.677 180.595C335.863 181.399 335.185 182.331 334.672 183.354C334.419 183.858 334.206 184.382 334.034 184.92C334.729 183.941 335.601 183.102 336.606 182.447Z" fill="black"/>
<path opacity="0.1" d="M330.024 219.217C329.941 219.842 329.801 220.458 329.605 221.057C329.933 220.598 330.226 220.115 330.481 219.612C330.756 219.073 330.985 218.511 331.165 217.932C330.822 218.392 330.44 218.822 330.024 219.217Z" fill="black"/>
<path opacity="0.1" d="M323.698 231.74C323.616 232.365 323.475 232.981 323.279 233.58C323.61 233.122 323.904 232.639 324.16 232.135C324.433 231.595 324.662 231.033 324.843 230.455C324.5 230.916 324.117 231.346 323.698 231.74Z" fill="black"/>
<path opacity="0.1" d="M326.861 225.475C326.779 226.1 326.639 226.715 326.442 227.314C326.776 226.864 327.076 226.39 327.34 225.895C327.615 225.355 327.843 224.793 328.023 224.215C327.672 224.667 327.283 225.088 326.861 225.475Z" fill="black"/>
<path opacity="0.1" d="M333.187 212.956C333.105 213.58 332.964 214.194 332.768 214.791C333.097 214.335 333.39 213.853 333.644 213.351C333.922 212.802 334.152 212.23 334.332 211.642C333.99 212.113 333.607 212.553 333.187 212.956Z" fill="black"/>
<path opacity="0.1" d="M312.477 197.12C315.716 196.057 319.474 198.657 320.867 202.928C321.063 203.545 321.204 204.179 321.286 204.822C322.005 205.384 322.634 206.054 323.149 206.808C323.342 205.971 323.635 205.16 324.021 204.393C324.168 204.108 324.328 203.835 324.491 203.553C324.015 202.894 323.451 202.303 322.813 201.798C322.731 201.157 322.591 200.524 322.394 199.908C320.993 195.637 317.234 193.034 314.004 194.1C312.159 194.705 310.883 196.372 310.388 198.48C310.956 197.854 311.676 197.386 312.477 197.12Z" fill="black"/>
<path opacity="0.1" d="M327.495 200.479C327.458 199.862 327.483 199.243 327.57 198.632C326.753 199.434 326.074 200.366 325.561 201.391C325.307 201.893 325.094 202.416 324.923 202.953C325.619 201.976 326.492 201.137 327.495 200.479Z" fill="black"/>
<path opacity="0.1" d="M332.05 191.459C332.013 190.842 332.038 190.223 332.126 189.611C331.308 190.411 330.629 191.342 330.116 192.366C329.863 192.871 329.65 193.394 329.479 193.932C330.173 192.953 331.045 192.114 332.05 191.459Z" fill="black"/>
<path opacity="0.1" d="M320.535 238.002C320.453 238.628 320.313 239.245 320.116 239.845C320.805 238.889 321.334 237.827 321.681 236.7C321.338 237.167 320.955 237.602 320.535 238.002Z" fill="black"/>
</g>
<path opacity="0.1" d="M360.696 156.901C362.175 155.928 363.366 154.577 364.148 152.987C366.208 148.914 365.357 144.332 362.248 142.757C359.14 141.183 354.949 143.211 352.89 147.289C352.074 148.865 351.694 150.631 351.791 152.404C350.325 153.391 349.136 154.738 348.338 156.317C347.541 157.896 347.161 159.653 347.235 161.42C345.756 162.392 344.564 163.744 343.783 165.334C343.53 165.832 343.318 166.351 343.149 166.883C344.244 165.296 345.833 164.115 347.667 163.524C347.876 164.171 348.211 164.77 348.653 165.286C349.094 165.803 349.634 166.226 350.24 166.532C350.846 166.838 351.507 167.021 352.185 167.07C352.862 167.119 353.542 167.033 354.186 166.816C354.805 168.642 354.805 170.622 354.186 172.448C354.513 171.995 354.805 171.518 355.058 171.02C355.872 169.447 356.251 167.686 356.157 165.918C357.625 164.932 358.815 163.585 359.613 162.006C360.411 160.427 360.79 158.669 360.713 156.901H360.696Z" fill="#3F3D56"/>
<path opacity="0.1" d="M410.765 99.0995C412.03 98.5088 413.252 97.8311 414.423 97.0712L400.861 87.152L416.801 95.3704C420.026 92.8058 422.694 89.6092 424.641 85.9763C426.589 82.3434 427.775 78.3507 428.127 74.2428L401.037 74.5199L428.186 69.9761C427.905 65.8641 426.788 61.853 424.902 58.1891C423.017 54.5253 420.403 51.286 417.221 48.6704C414.039 46.0547 410.357 44.1179 406.401 42.9788C402.444 41.8398 398.297 41.5226 394.213 42.0467C390.13 42.5709 386.196 43.9253 382.655 46.0267C379.113 48.1282 376.038 50.9323 373.618 54.2669C371.199 57.6015 369.486 61.3961 368.584 65.4177C367.683 69.4393 367.612 73.6029 368.377 77.6527C366.408 78.5694 364.543 79.6958 362.815 81.0123L376.972 100.721L359.975 83.469C356.388 86.9954 353.735 91.3616 352.258 96.1725C350.781 100.983 350.525 106.087 351.514 111.022C346.379 113.421 342.022 117.218 338.941 121.979C335.86 126.74 334.179 132.272 334.089 137.945C334 143.617 335.507 149.199 338.437 154.055C341.367 158.911 345.602 162.843 350.659 165.403C355.715 167.963 361.389 169.047 367.032 168.532C372.675 168.016 378.06 165.922 382.57 162.488C387.08 159.054 390.535 154.42 392.539 149.113C394.543 143.807 395.015 138.044 393.902 132.481C400.047 129.618 405.05 124.769 408.109 118.714C411.168 112.66 412.103 105.751 410.765 99.0995Z" fill="#6C63FF"/>
<path opacity="0.1" d="M354.186 91.4061C351.117 97.4579 350.179 104.37 351.522 111.022C346.388 113.421 342.031 117.218 338.95 121.979C335.868 126.74 334.187 132.272 334.098 137.945C334.009 143.617 335.515 149.199 338.445 154.055C341.375 158.911 345.611 162.843 350.667 165.403C355.724 167.963 361.398 169.047 367.041 168.532C372.684 168.016 378.068 165.922 382.579 162.488C387.089 159.054 390.544 154.42 392.547 149.113C394.551 143.807 395.024 138.044 393.911 132.481C399.838 129.726 355.705 88.3782 354.186 91.4061Z" fill="black"/>
<path opacity="0.1" d="M388.222 47.6264C390.699 47.6264 392.707 45.6165 392.707 43.1371C392.707 40.6578 390.699 38.6479 388.222 38.6479C385.746 38.6479 383.738 40.6578 383.738 43.1371C383.738 45.6165 385.746 47.6264 388.222 47.6264Z" fill="#6C63FF"/>
<path opacity="0.1" d="M414.415 50.5073C416.891 50.5073 418.899 48.4973 418.899 46.018C418.899 43.5387 416.891 41.5287 414.415 41.5287C411.938 41.5287 409.93 43.5387 409.93 46.018C409.93 48.4973 411.938 50.5073 414.415 50.5073Z" fill="#6C63FF"/>
<path opacity="0.1" d="M424.516 90.8475C426.992 90.8475 429 88.8376 429 86.3583C429 83.8789 426.992 81.869 424.516 81.869C422.039 81.869 420.031 83.8789 420.031 86.3583C420.031 88.8376 422.039 90.8475 424.516 90.8475Z" fill="#6C63FF"/>
<path opacity="0.1" d="M410.883 110.992C413.359 110.992 415.367 108.983 415.367 106.503C415.367 104.024 413.359 102.014 410.883 102.014C408.406 102.014 406.398 104.024 406.398 106.503C406.398 108.983 408.406 110.992 410.883 110.992Z" fill="#6C63FF"/>
<path opacity="0.1" d="M392.258 152.832C394.734 152.832 396.742 150.822 396.742 148.343C396.742 145.863 394.734 143.853 392.258 143.853C389.781 143.853 387.774 145.863 387.774 148.343C387.774 150.822 389.781 152.832 392.258 152.832Z" fill="#6C63FF"/>
<path opacity="0.1" d="M392.258 152.832C394.734 152.832 396.742 150.822 396.742 148.343C396.742 145.863 394.734 143.853 392.258 143.853C389.781 143.853 387.774 145.863 387.774 148.343C387.774 150.822 389.781 152.832 392.258 152.832Z" fill="black"/>
<path opacity="0.1" d="M350.847 105.445C353.324 105.445 355.331 103.435 355.331 100.956C355.331 98.4763 353.324 96.4664 350.847 96.4664C348.37 96.4664 346.363 98.4763 346.363 100.956C346.363 103.435 348.37 105.445 350.847 105.445Z" fill="#6C63FF"/>
<path opacity="0.1" d="M350.847 105.445C353.324 105.445 355.331 103.435 355.331 100.956C355.331 98.4763 353.324 96.4664 350.847 96.4664C348.37 96.4664 346.363 98.4763 346.363 100.956C346.363 103.435 348.37 105.445 350.847 105.445Z" fill="black"/>
<path opacity="0.1" d="M346.065 174.795C343.082 173.288 342.181 169.017 343.921 165.078C343.829 165.237 343.741 165.401 343.657 165.573C341.598 169.647 342.449 174.224 345.557 175.799C348.666 177.374 352.856 175.345 354.912 171.272C355 171.104 355.075 170.932 355.151 170.764C353.016 174.506 349.043 176.307 346.065 174.795Z" fill="black"/>
<path opacity="0.1" d="M341.635 183.564C338.657 182.056 337.751 177.785 339.496 173.842C339.404 174.006 339.311 174.17 339.227 174.338C337.168 178.411 338.019 182.993 341.128 184.563C344.236 186.134 348.427 184.114 350.486 180.036C350.57 179.868 350.65 179.7 350.725 179.528C348.586 183.27 344.618 185.071 341.635 183.564Z" fill="black"/>
<path opacity="0.1" d="M337.206 192.328C334.227 190.821 333.321 186.55 335.066 182.611C334.974 182.77 334.882 182.934 334.798 183.106C332.738 187.18 333.594 191.757 336.702 193.332C339.811 194.907 343.997 192.878 346.057 188.805C346.14 188.637 346.22 188.465 346.296 188.297C344.161 192.038 340.188 193.84 337.206 192.328Z" fill="black"/>
<path opacity="0.1" d="M332.793 201.118C329.81 199.61 328.908 195.339 330.649 191.4C330.557 191.56 330.469 191.723 330.381 191.891C328.325 195.965 329.177 200.547 332.285 202.121C335.393 203.696 339.584 201.668 341.639 197.59C341.727 197.422 341.803 197.254 341.878 197.082C339.731 200.803 335.758 202.604 332.793 201.118Z" fill="black"/>
<path opacity="0.1" d="M328.35 209.861C325.368 208.353 324.466 204.083 326.207 200.143C326.115 200.303 326.026 200.467 325.943 200.639C323.883 204.712 324.734 209.29 327.843 210.865C330.951 212.44 335.142 210.411 337.201 206.338C337.285 206.17 337.365 205.997 337.44 205.83C335.309 209.571 331.329 211.373 328.35 209.861Z" fill="black"/>
<path opacity="0.1" d="M323.921 218.63C320.942 217.122 320.036 212.851 321.781 208.912C321.689 209.072 321.597 209.235 321.513 209.403C319.453 213.477 320.305 218.058 323.417 219.633C326.53 221.208 330.695 219.175 332.793 215.102C332.877 214.934 332.956 214.766 333.032 214.594C330.871 218.336 326.92 220.137 323.921 218.63Z" fill="black"/>
<path opacity="0.1" d="M319.491 227.394C316.513 225.886 315.607 221.615 317.352 217.676C317.259 217.84 317.171 218 317.083 218.172C315.028 222.245 315.879 226.823 318.988 228.398C322.096 229.972 326.287 227.944 328.342 223.871C328.43 223.703 328.506 223.53 328.581 223.362C326.446 227.104 322.474 228.906 319.491 227.394Z" fill="black"/>
<path opacity="0.1" d="M315.065 236.162C312.083 234.655 311.181 230.384 312.922 226.445C312.83 226.604 312.742 226.768 312.658 226.936C310.598 231.01 311.45 235.591 314.558 237.166C317.666 238.741 321.857 236.713 323.916 232.635C324 232.467 324.076 232.299 324.151 232.127C322.016 235.868 318.044 237.653 315.065 236.162Z" fill="black"/>
<path opacity="0.1" d="M312.154 241.924C309.176 240.412 308.27 236.146 310.015 232.202C309.923 232.366 309.83 232.53 309.747 232.698C307.687 236.771 308.538 241.353 311.647 242.924C314.755 244.494 318.946 242.474 321.005 238.397C321.089 238.229 321.169 238.061 321.244 237.888C319.105 241.63 315.133 243.432 312.154 241.924Z" fill="black"/>
<path opacity="0.1" d="M392.187 202.907C392.649 201.58 392.931 200.197 393.026 198.795C393.334 198.795 393.638 198.73 393.92 198.607C394.203 198.483 394.456 198.302 394.665 198.075C394.874 197.849 395.035 197.582 395.136 197.29C395.237 196.999 395.278 196.69 395.254 196.382C395.231 196.075 395.144 195.775 395 195.503C394.856 195.23 394.657 194.99 394.416 194.798C394.175 194.606 393.897 194.466 393.599 194.386C393.301 194.307 392.99 194.289 392.686 194.336C392.187 192.063 391.189 189.929 389.764 188.091C388.339 186.252 386.523 184.755 384.447 183.707C384.715 183.175 384.762 182.559 384.576 181.994C384.39 181.428 383.988 180.96 383.457 180.691C382.927 180.423 382.311 180.377 381.746 180.562C381.181 180.748 380.714 181.151 380.445 181.682C380.348 181.871 380.28 182.074 380.244 182.283C377.783 181.824 375.248 181.96 372.849 182.679C370.451 183.399 368.259 184.681 366.456 186.42C365.094 186.199 363.709 186.158 362.337 186.298L360.52 194.575L360.411 186.596C358.326 187.053 356.357 187.932 354.623 189.177C352.888 190.422 351.426 192.009 350.325 193.839C349.224 195.67 348.508 197.705 348.219 199.822C347.931 201.939 348.077 204.093 348.648 206.152C349.219 208.21 350.204 210.131 351.541 211.796C352.879 213.461 354.542 214.835 356.428 215.834C358.314 216.834 360.384 217.438 362.512 217.61C364.639 217.781 366.779 217.517 368.801 216.832C369.017 217.223 369.346 217.539 369.745 217.739C370.155 217.948 370.62 218.025 371.076 217.96C371.533 217.894 371.957 217.69 372.293 217.374C372.629 217.058 372.859 216.646 372.952 216.195C373.046 215.743 372.998 215.273 372.815 214.85C373.531 214.358 374.204 213.807 374.829 213.204C378.103 213.737 381.463 213.218 384.425 211.722C387.387 210.226 389.8 207.83 391.318 204.876L382.866 203.453L392.187 202.907Z" fill="#6C63FF"/>
<g opacity="0.1">
<path opacity="0.1" d="M379.128 206.926C376.007 202.802 374.095 197.918 371.892 193.231C371.008 191.307 370.018 189.434 368.927 187.621L367.274 185.693C366.997 185.928 366.72 186.172 366.435 186.428C365.073 186.207 363.688 186.166 362.316 186.306L360.499 194.583L360.39 186.604C358.305 187.062 356.336 187.94 354.602 189.185C352.867 190.431 351.405 192.017 350.304 193.848C349.203 195.678 348.487 197.714 348.198 199.831C347.91 201.948 348.056 204.102 348.627 206.16C349.198 208.219 350.183 210.139 351.52 211.804C352.858 213.469 354.521 214.843 356.407 215.843C358.293 216.842 360.363 217.447 362.491 217.618C364.618 217.79 366.758 217.525 368.78 216.841C368.996 217.231 369.325 217.547 369.724 217.748C370.134 217.957 370.599 218.034 371.055 217.968C371.512 217.903 371.936 217.698 372.272 217.382C372.608 217.066 372.838 216.655 372.932 216.203C373.025 215.751 372.977 215.282 372.794 214.858C373.51 214.366 374.183 213.816 374.808 213.212C378.014 213.732 381.302 213.245 384.221 211.818C382.272 210.471 380.553 208.819 379.128 206.926Z" fill="black"/>
</g>
<path opacity="0.1" d="M323.862 189.204C324.035 188.861 324.117 188.48 324.101 188.097C324.085 187.714 323.971 187.341 323.77 187.014C323.568 186.688 323.287 186.418 322.952 186.232C322.617 186.045 322.24 185.948 321.857 185.949C321.221 182.574 319.497 179.501 316.949 177.202C317.36 175.598 317.515 173.94 317.41 172.288L309.168 170.881L317.171 170.377C317.028 169.625 316.83 168.884 316.58 168.16C316.891 167.945 317.145 167.657 317.318 167.32C317.52 166.919 317.597 166.466 317.539 166.02C317.481 165.575 317.291 165.157 316.994 164.82C316.696 164.484 316.304 164.244 315.869 164.133C315.434 164.022 314.976 164.044 314.554 164.196C312.434 161.197 309.332 159.037 305.786 158.09C302.241 157.143 298.476 157.47 295.146 159.013C291.816 160.556 289.132 163.219 287.559 166.538C285.986 169.857 285.624 173.622 286.537 177.181C286.051 177.386 285.656 177.758 285.421 178.23C285.215 178.637 285.138 179.097 285.2 179.549C285.262 180 285.46 180.422 285.767 180.759C286.075 181.095 286.478 181.329 286.921 181.43C287.365 181.532 287.83 181.495 288.252 181.325C289.057 182.678 290.06 183.903 291.227 184.958C290.377 188.275 290.633 191.779 291.956 194.936L303.01 192.064L293.152 197.254C294.895 200.027 297.46 202.185 300.488 203.427C303.517 204.668 306.857 204.931 310.042 204.179C313.227 203.426 316.097 201.696 318.252 199.23C320.406 196.764 321.737 193.686 322.058 190.426C322.438 190.393 322.803 190.263 323.119 190.05C323.434 189.836 323.69 189.544 323.862 189.204Z" fill="#6C63FF"/>
<path opacity="0.1" d="M323.862 189.204C324.035 188.861 324.117 188.48 324.101 188.097C324.085 187.714 323.971 187.341 323.77 187.014C323.569 186.688 323.287 186.418 322.952 186.232C322.617 186.045 322.24 185.948 321.857 185.949C321.221 182.574 319.497 179.501 316.949 177.202C317.016 176.937 317.075 176.677 317.125 176.412C316.833 176.624 316.561 176.865 316.316 177.13C314.826 178.764 314.063 180.96 312.591 182.611C310.854 184.559 308.253 185.575 305.657 185.848C303.06 186.121 300.447 185.722 297.884 185.223C295.761 184.803 293.609 184.316 291.457 184.521C291.248 184.521 291.038 184.568 290.845 184.601C290.971 184.723 291.097 184.845 291.227 184.962C290.377 188.279 290.633 191.783 291.957 194.94L303.01 192.064L293.152 197.254C294.895 200.027 297.46 202.185 300.488 203.427C303.517 204.668 306.857 204.931 310.042 204.179C313.227 203.426 316.097 201.696 318.252 199.23C320.406 196.764 321.737 193.686 322.058 190.426C322.438 190.393 322.803 190.263 323.119 190.05C323.435 189.836 323.69 189.544 323.862 189.204Z" fill="black"/>
</g>
<g opacity="0.1">
<path opacity="0.1" d="M37.5391 214.695C38.0761 213.061 40.2531 212.309 42.4009 213.015C42.7098 213.116 43.0088 213.246 43.2944 213.401C43.4328 213.363 43.5754 213.33 43.7138 213.305C43.596 212.836 43.5507 212.351 43.5796 211.868C42.8423 211.369 42.2446 210.69 41.8431 209.895C41.4415 209.1 41.2494 208.215 41.2851 207.325C40.5414 206.835 39.9418 206.155 39.5484 205.355C39.1385 204.563 38.946 203.676 38.9905 202.785C38.2473 202.292 37.648 201.611 37.2539 200.811C36.222 198.762 36.6414 196.456 38.2145 195.658C39.7875 194.86 41.8933 195.889 42.9294 197.939C43.3386 198.732 43.5297 199.621 43.4831 200.513C44.2224 201.009 44.8217 201.687 45.2235 202.482C45.6254 203.277 45.8162 204.162 45.7777 205.053C46.5167 205.55 47.1157 206.229 47.5175 207.025C47.9192 207.82 48.1102 208.706 48.0722 209.596C48.8114 210.093 49.4108 210.771 49.8126 211.566C50.2145 212.361 50.4053 213.246 50.3668 214.136C51.1115 214.628 51.7123 215.309 52.1076 216.11C52.2962 216.497 52.4371 216.906 52.5271 217.328C52.7855 216.947 53.101 216.608 53.4625 216.324C53.5056 216 53.5786 215.681 53.6806 215.371C54.3895 213.221 56.2814 211.91 57.9132 212.431C59.5449 212.952 60.2916 215.148 59.5911 217.298C59.3015 218.222 58.7454 219.038 57.9929 219.646C57.9493 219.968 57.8763 220.286 57.7747 220.595C57.4304 221.735 56.6635 222.699 55.6312 223.291C55.7121 223.566 55.771 223.847 55.8074 224.131C56.2405 224.547 56.5994 225.034 56.8687 225.571C57.1431 226.107 57.322 226.687 57.3972 227.285C57.8319 227.7 58.1923 228.188 58.4627 228.725C58.7366 229.261 58.9154 229.841 58.9912 230.439C59.4269 230.855 59.7874 231.344 60.0567 231.883C61.0928 233.932 60.6649 236.242 59.1003 237.032C57.5356 237.821 55.4215 236.805 54.3854 234.751C54.1122 234.215 53.9334 233.635 53.8568 233.038C52.9828 232.199 52.4206 231.086 52.2628 229.884C51.3888 229.045 50.8266 227.932 50.6688 226.73C50.2344 226.314 49.8741 225.827 49.6033 225.29C49.332 224.753 49.1533 224.173 49.0748 223.577C48.6417 223.16 48.2828 222.673 48.0135 222.136C47.739 221.6 47.5602 221.02 47.4849 220.423C47.2149 220.171 46.9742 219.889 46.7676 219.583C45.9046 219.76 45.0102 219.705 44.1753 219.423C43.8652 219.32 43.5648 219.189 43.2776 219.033C42.3446 219.281 41.3591 219.246 40.4461 218.932C38.3194 218.222 37.0064 216.328 37.5391 214.695Z" fill="#3F3D56"/>
<g opacity="0.1">
<path opacity="0.1" d="M41.3269 208.257C41.5493 208.476 41.7939 208.672 42.0568 208.841C42.0213 209.444 42.101 210.048 42.2917 210.621C42.1232 210.392 41.9744 210.149 41.8471 209.895C41.5847 209.381 41.4089 208.828 41.3269 208.257Z" fill="black"/>
<path opacity="0.1" d="M39.0323 203.721C39.2559 203.938 39.5004 204.132 39.7622 204.301C39.727 204.905 39.8067 205.511 39.9972 206.086C39.489 205.387 39.1579 204.576 39.0323 203.721Z" fill="black"/>
<path opacity="0.1" d="M44.2464 202.029C44.2664 201.718 44.2552 201.406 44.2129 201.097C44.623 201.502 44.9644 201.972 45.2238 202.487C45.3505 202.741 45.4571 203.005 45.5426 203.276C45.1931 202.782 44.7533 202.359 44.2464 202.029Z" fill="black"/>
<path opacity="0.1" d="M58.8023 229.519C58.6189 229.261 58.411 229.022 58.1815 228.805C58.1432 228.52 58.0815 228.239 57.9969 227.965C58.179 228.212 58.3404 228.473 58.4793 228.746C58.6066 228.995 58.7146 229.253 58.8023 229.519Z" fill="black"/>
<path opacity="0.1" d="M57.1958 226.365C57.0124 226.108 56.8045 225.868 56.575 225.651C56.5407 225.367 56.4818 225.086 56.3988 224.811C56.7444 225.28 57.0108 225.802 57.1874 226.357L57.1958 226.365Z" fill="black"/>
<path opacity="0.1" d="M43.6257 212.809C43.8459 213.027 44.0892 213.22 44.3514 213.384C44.32 213.867 44.3653 214.352 44.4856 214.821C44.3442 214.846 44.2042 214.878 44.0661 214.917C43.7788 214.762 43.4784 214.633 43.1684 214.531C41.0207 213.825 38.8436 214.577 38.3109 216.211C38.1774 216.617 38.1528 217.052 38.2396 217.471C37.8945 217.107 37.649 216.661 37.527 216.174C37.405 215.688 37.4106 215.178 37.5432 214.695C38.0802 213.061 40.2573 212.309 42.405 213.015C42.7139 213.116 43.013 213.246 43.2985 213.401C43.4369 213.363 43.5795 213.33 43.718 213.305C43.6776 213.141 43.6468 212.976 43.6257 212.809Z" fill="black"/>
<path opacity="0.1" d="M59.5909 231.102C59.7739 231.349 59.9353 231.612 60.0733 231.887C60.2014 232.142 60.3094 232.406 60.3963 232.677C60.213 232.418 60.0051 232.178 59.7755 231.959C59.7381 231.668 59.6764 231.382 59.5909 231.102Z" fill="black"/>
<path opacity="0.1" d="M46.541 206.577C46.561 206.266 46.5498 205.954 46.5074 205.645C46.9185 206.049 47.2601 206.519 47.5184 207.035C47.645 207.288 47.7516 207.55 47.8372 207.82C47.4875 207.327 47.0477 206.906 46.541 206.577Z" fill="black"/>
<path opacity="0.1" d="M49.8591 225.097C49.8983 225.411 49.9672 225.72 50.0646 226.021C49.7151 225.541 49.4485 225.006 49.276 224.437C49.4503 224.674 49.6454 224.895 49.8591 225.097Z" fill="black"/>
<path opacity="0.1" d="M53.043 231.404C53.0853 231.718 53.1555 232.027 53.2527 232.328C53.0842 232.099 52.9354 231.856 52.8081 231.602C52.6701 231.332 52.5551 231.051 52.4641 230.762C52.6398 230.991 52.8334 231.206 53.043 231.404Z" fill="black"/>
<path opacity="0.1" d="M51.4531 228.251C51.4923 228.564 51.5612 228.874 51.6586 229.174C51.4915 228.944 51.3429 228.701 51.214 228.448C51.0755 228.178 50.9604 227.897 50.87 227.608C51.0451 227.839 51.2402 228.054 51.4531 228.251Z" fill="black"/>
<path opacity="0.1" d="M48.2651 221.939C48.3039 222.254 48.3727 222.565 48.4706 222.867C48.3116 222.636 48.1713 222.393 48.0512 222.14C47.9105 221.871 47.794 221.59 47.703 221.3C47.8706 221.53 48.0587 221.744 48.2651 221.939Z" fill="black"/>
<path opacity="0.1" d="M58.6976 213.964C57.0658 213.426 55.1739 214.737 54.4692 216.904C54.3672 217.214 54.2942 217.533 54.2511 217.857C53.8883 218.14 53.5713 218.477 53.3115 218.856C53.2141 218.434 53.0662 218.025 52.871 217.638C52.7997 217.496 52.72 217.357 52.6361 217.219C52.8742 216.888 53.1565 216.591 53.4751 216.337C53.5182 216.013 53.5912 215.694 53.6932 215.383C54.4021 213.233 56.294 211.923 57.9257 212.444C58.3936 212.624 58.8072 212.921 59.1262 213.308C59.4452 213.696 59.6588 214.159 59.7463 214.653C59.4612 214.337 59.1001 214.1 58.6976 213.964Z" fill="black"/>
<path opacity="0.1" d="M51.1301 215.656C51.1501 215.345 51.1388 215.033 51.0966 214.724C51.5076 215.129 51.8492 215.598 52.1075 216.114C52.2341 216.369 52.3407 216.633 52.4263 216.904C52.0778 216.409 51.6378 215.985 51.1301 215.656Z" fill="black"/>
<path opacity="0.1" d="M48.8356 211.112C48.8555 210.801 48.8442 210.489 48.802 210.18C49.2111 210.586 49.5525 211.056 49.8129 211.57C49.9396 211.825 50.0462 212.089 50.1317 212.36C49.7822 211.866 49.3424 211.443 48.8356 211.112Z" fill="black"/>
<path opacity="0.1" d="M54.637 234.558C54.6772 234.874 54.7475 235.184 54.8467 235.486C54.6791 235.255 54.5304 235.011 54.4021 234.756C54.2641 234.486 54.1491 234.205 54.0581 233.916C54.2338 234.145 54.4273 234.36 54.637 234.558Z" fill="black"/>
</g>
<path opacity="0.1" d="M34.4056 193.701C33.6618 193.211 33.0623 192.531 32.6689 191.732C31.6328 189.678 32.0607 187.373 33.6253 186.579C35.19 185.785 37.3042 186.806 38.3403 188.859C38.7501 189.651 38.9412 190.539 38.894 191.429C39.633 191.927 40.232 192.606 40.6338 193.402C41.0355 194.197 41.2265 195.083 41.1885 195.973C41.9327 196.464 42.5334 197.144 42.9293 197.943C43.0552 198.195 43.1618 198.456 43.2481 198.724C42.6925 197.93 41.8925 197.34 40.9704 197.044C40.8677 197.372 40.7007 197.676 40.4792 197.939C40.2576 198.202 39.986 198.418 39.6802 198.574C39.3744 198.731 39.0406 198.824 38.6981 198.85C38.3557 198.876 38.0116 198.833 37.6859 198.724C37.3749 199.643 37.3749 200.639 37.6859 201.559C37.5283 201.33 37.388 201.09 37.2664 200.841C36.8565 200.048 36.6639 199.161 36.7085 198.27C35.9704 197.772 35.372 197.093 34.9703 196.298C34.5687 195.502 34.3771 194.617 34.4139 193.727L34.4056 193.701Z" fill="#3F3D56"/>
<path opacity="0.1" d="M9.18657 164.582C8.55026 164.284 7.935 163.943 7.34506 163.562L14.1742 158.564L6.14535 162.701C4.52202 161.409 3.17916 159.798 2.19895 157.968C1.21874 156.139 0.621792 154.128 0.444647 152.059L14.0945 152.202L0.415283 149.909C0.533066 147.82 1.07932 145.777 2.02002 143.909C2.96072 142.04 4.2757 140.386 5.88304 139.048C7.49038 137.711 9.35564 136.719 11.3626 136.134C13.3696 135.55 15.4752 135.386 17.5484 135.652C19.6216 135.917 21.6179 136.608 23.4129 137.68C25.2079 138.752 26.7631 140.183 27.9817 141.883C29.2003 143.583 30.0562 145.516 30.496 147.561C30.9358 149.607 30.9501 151.721 30.538 153.773C31.5288 154.232 32.4681 154.795 33.3401 155.452L26.209 165.38L34.7705 156.696C36.5771 158.472 37.9129 160.672 38.6571 163.095C39.4012 165.518 39.5302 168.089 39.0324 170.575C41.6223 171.782 43.8205 173.695 45.3755 176.095C46.9305 178.495 47.7796 181.284 47.8258 184.144C47.8719 187.004 47.1132 189.819 45.6363 192.267C44.1595 194.716 42.0242 196.699 39.4746 197.99C36.925 199.28 34.064 199.827 31.2188 199.566C28.3736 199.306 25.6591 198.249 23.3855 196.517C21.112 194.785 19.3714 192.447 18.3626 189.771C17.3538 187.095 17.1176 184.188 17.681 181.384C14.5898 179.942 12.0721 177.502 10.5318 174.456C8.9914 171.41 8.51767 167.934 9.18657 164.586V164.582Z" fill="#6C63FF"/>
<path opacity="0.1" d="M37.6901 160.71C39.2372 163.758 39.7102 167.24 39.0324 170.592C41.6223 171.799 43.8205 173.712 45.3755 176.112C46.9305 178.511 47.7797 181.3 47.8258 184.16C47.8719 187.02 47.1132 189.835 45.6364 192.284C44.1596 194.733 42.0243 196.716 39.4746 198.006C36.925 199.297 34.0641 199.844 31.2189 199.583C28.3737 199.323 25.6591 198.266 23.3856 196.534C21.1121 194.801 19.3714 192.464 18.3626 189.788C17.3538 187.111 17.1176 184.205 17.681 181.401C14.6901 180.011 36.9225 159.186 37.6901 160.71Z" fill="black"/>
<path opacity="0.1" d="M20.5419 138.655C21.7906 138.655 22.8029 137.641 22.8029 136.391C22.8029 135.141 21.7906 134.127 20.5419 134.127C19.2932 134.127 18.2809 135.141 18.2809 136.391C18.2809 137.641 19.2932 138.655 20.5419 138.655Z" fill="#6C63FF"/>
<path opacity="0.1" d="M7.34509 140.108C8.5938 140.108 9.60608 139.094 9.60608 137.844C9.60608 136.594 8.5938 135.58 7.34509 135.58C6.09638 135.58 5.08411 136.594 5.08411 137.844C5.08411 139.094 6.09638 140.108 7.34509 140.108Z" fill="#6C63FF"/>
<path opacity="0.1" d="M2.26099 160.429C3.50969 160.429 4.52197 159.415 4.52197 158.165C4.52197 156.915 3.50969 155.902 2.26099 155.902C1.01228 155.902 0 156.915 0 158.165C0 159.415 1.01228 160.429 2.26099 160.429Z" fill="#6C63FF"/>
<path opacity="0.1" d="M9.12781 170.579C10.3765 170.579 11.3888 169.566 11.3888 168.316C11.3888 167.065 10.3765 166.052 9.12781 166.052C7.8791 166.052 6.86682 167.065 6.86682 168.316C6.86682 169.566 7.8791 170.579 9.12781 170.579Z" fill="#6C63FF"/>
<path opacity="0.1" d="M18.5073 191.656C19.756 191.656 20.7683 190.643 20.7683 189.393C20.7683 188.143 19.756 187.129 18.5073 187.129C17.2586 187.129 16.2463 188.143 16.2463 189.393C16.2463 190.643 17.2586 191.656 18.5073 191.656Z" fill="#6C63FF"/>
<path opacity="0.1" d="M18.5073 191.656C19.756 191.656 20.7683 190.643 20.7683 189.393C20.7683 188.143 19.756 187.129 18.5073 187.129C17.2586 187.129 16.2463 188.143 16.2463 189.393C16.2463 190.643 17.2586 191.656 18.5073 191.656Z" fill="black"/>
<path opacity="0.1" d="M39.368 167.782C40.6167 167.782 41.629 166.769 41.629 165.519C41.629 164.269 40.6167 163.255 39.368 163.255C38.1193 163.255 37.1071 164.269 37.1071 165.519C37.1071 166.769 38.1193 167.782 39.368 167.782Z" fill="#6C63FF"/>
<path opacity="0.1" d="M39.368 167.782C40.6167 167.782 41.629 166.769 41.629 165.519C41.629 164.269 40.6167 163.255 39.368 163.255C38.1193 163.255 37.1071 164.269 37.1071 165.519C37.1071 166.769 38.1193 167.782 39.368 167.782Z" fill="black"/>
<path opacity="0.1" d="M41.78 202.718C43.2818 201.958 43.7348 199.807 42.8581 197.821C42.9042 197.905 42.9504 197.985 42.9923 198.069C44.0284 200.122 43.6006 202.428 42.0317 203.222C40.4629 204.015 38.3571 202.995 37.321 200.941C37.279 200.857 37.2371 200.773 37.1993 200.685C38.2774 202.571 40.2783 203.478 41.78 202.718Z" fill="black"/>
<path opacity="0.1" d="M44.0074 207.136C45.5092 206.375 45.9664 204.221 45.0897 202.239C45.1358 202.319 45.182 202.403 45.2239 202.487C46.26 204.54 45.8321 206.846 44.2633 207.64C42.6945 208.433 40.5887 207.413 39.5526 205.359C39.5064 205.275 39.4687 205.187 39.4309 205.103C40.509 206.997 42.5141 207.896 44.0074 207.136Z" fill="black"/>
<path opacity="0.1" d="M46.2391 211.549C47.7408 210.789 48.1981 208.639 47.3172 206.653C47.3675 206.737 47.4094 206.816 47.4556 206.905C48.4917 208.954 48.0596 211.264 46.495 212.053C44.9303 212.843 42.8204 211.826 41.7842 209.773C41.7381 209.689 41.7004 209.605 41.6626 209.517C42.7365 211.402 44.7374 212.309 46.2391 211.549Z" fill="black"/>
<path opacity="0.1" d="M48.4707 215.967C49.9724 215.207 50.4296 213.057 49.5487 211.07C49.5949 211.15 49.641 211.234 49.683 211.318C50.7233 213.372 50.2912 215.677 48.7266 216.471C47.1619 217.265 45.0477 216.244 44.0116 214.191C43.9697 214.107 43.9319 214.019 43.8942 213.935C44.968 215.816 46.9689 216.727 48.4707 215.967Z" fill="black"/>
<path opacity="0.1" d="M50.7023 220.381C52.204 219.621 52.657 217.47 51.7803 215.488C51.8265 215.568 51.8726 215.652 51.9146 215.736C52.9507 217.79 52.5228 220.095 50.9582 220.889C49.3935 221.683 47.2793 220.658 46.2432 218.609C46.2013 218.52 46.1635 218.436 46.1216 218.352C47.1996 220.234 49.2005 221.141 50.7023 220.381Z" fill="black"/>
<path opacity="0.1" d="M52.934 224.799C54.4357 224.039 54.8887 221.888 54.012 219.902C54.0582 219.986 54.1043 220.066 54.1463 220.15C55.1824 222.203 54.7545 224.509 53.1898 225.303C51.6252 226.096 49.511 225.076 48.4749 223.022C48.433 222.938 48.391 222.854 48.3533 222.766C49.4313 224.635 51.4322 225.559 52.934 224.799Z" fill="black"/>
<path opacity="0.1" d="M55.1655 229.216C56.6631 228.456 57.1203 226.302 56.2436 224.32C56.2897 224.4 56.3359 224.484 56.3778 224.568C57.4139 226.621 56.9861 228.927 55.4172 229.72C53.8484 230.514 51.7426 229.489 50.7065 227.44C50.6645 227.352 50.6226 227.268 50.5848 227.184C51.6629 229.065 53.6638 229.977 55.1655 229.216Z" fill="black"/>
<path opacity="0.1" d="M57.3929 233.63C58.8946 232.87 59.3519 230.72 58.471 228.734C58.5213 228.818 58.5632 228.897 58.6094 228.985C59.6455 231.035 59.2134 233.345 57.6488 234.134C56.0841 234.924 53.9742 233.907 52.9381 231.854C52.8919 231.77 52.8542 231.686 52.8164 231.598C53.8945 233.483 55.8912 234.39 57.3929 233.63Z" fill="black"/>
<path opacity="0.1" d="M58.8737 236.532C60.3754 235.772 60.8284 233.622 59.9517 231.635C59.9979 231.719 60.044 231.799 60.086 231.887C61.1221 233.937 60.6942 236.246 59.1296 237.036C57.5649 237.825 55.4507 236.809 54.4146 234.756C54.3727 234.672 54.3307 234.588 54.293 234.499C55.3584 236.393 57.3594 237.292 58.8737 236.532Z" fill="black"/>
<path opacity="0.1" d="M18.5451 216.878C18.3121 216.211 18.171 215.514 18.1256 214.808C17.9705 214.807 17.8172 214.775 17.6752 214.712C17.5332 214.65 17.4057 214.559 17.3005 214.445C17.1952 214.33 17.1147 214.196 17.0637 214.049C17.0128 213.903 16.9927 213.747 17.0045 213.592C17.0164 213.437 17.06 213.286 17.1326 213.149C17.2053 213.012 17.3054 212.891 17.4268 212.795C17.5481 212.698 17.6881 212.627 17.8379 212.587C17.9877 212.547 18.1442 212.538 18.2976 212.561C18.5493 211.417 19.0521 210.342 19.7697 209.416C20.4872 208.49 21.4015 207.736 22.4463 207.207C22.3111 206.939 22.2877 206.628 22.3814 206.343C22.475 206.058 22.6779 205.822 22.9454 205.687C23.213 205.551 23.5233 205.528 23.8081 205.622C24.0929 205.715 24.3288 205.919 24.464 206.186C24.5131 206.281 24.547 206.383 24.5646 206.489C25.8059 206.261 27.0835 206.332 28.2916 206.697C29.4997 207.063 30.6035 207.711 31.5112 208.589C32.2045 208.475 32.91 208.455 33.6086 208.53L34.523 212.696L34.544 208.677C35.5841 208.917 36.5647 209.367 37.4268 209.997C38.2888 210.627 39.0145 211.426 39.56 212.344C40.1054 213.263 40.4595 214.283 40.6007 215.342C40.742 216.401 40.6675 217.478 40.3818 218.508C40.0961 219.538 39.6051 220.499 38.9384 221.333C38.2717 222.168 37.443 222.859 36.5024 223.364C35.5619 223.87 34.5288 224.179 33.4655 224.274C32.4022 224.369 31.3307 224.247 30.3157 223.917C30.2053 224.112 30.0406 224.271 29.8417 224.374C29.6343 224.479 29.3998 224.518 29.17 224.485C28.9401 224.451 28.7259 224.348 28.5565 224.189C28.3871 224.03 28.2707 223.823 28.2229 223.595C28.1752 223.368 28.1984 223.131 28.2896 222.917C27.9299 222.666 27.5918 222.385 27.2786 222.077C25.6286 222.345 23.9364 222.083 22.4444 221.328C20.9524 220.574 19.7372 219.366 18.973 217.878L23.2307 217.16L18.5451 216.878Z" fill="#6C63FF"/>
<g opacity="0.1">
<path opacity="0.1" d="M25.1225 218.903C26.6955 216.803 27.6603 214.367 28.7677 212.007C29.2112 211.036 29.7098 210.091 30.2611 209.177L31.1 208.206C31.2427 208.328 31.3811 208.45 31.5195 208.576C32.2129 208.462 32.9183 208.443 33.6169 208.517L34.5314 212.683L34.544 208.677C35.584 208.917 36.5647 209.367 37.4267 209.997C38.2888 210.627 39.0144 211.426 39.5599 212.344C40.1054 213.263 40.4594 214.283 40.6007 215.342C40.7419 216.401 40.6675 217.478 40.3818 218.508C40.0961 219.538 39.6051 220.499 38.9383 221.333C38.2716 222.168 37.443 222.859 36.5024 223.364C35.5618 223.87 34.5287 224.179 33.4655 224.274C32.4022 224.369 31.3307 224.247 30.3156 223.917C30.2052 224.112 30.0405 224.271 29.8416 224.374C29.6343 224.479 29.3998 224.518 29.1699 224.485C28.94 224.451 28.7259 224.348 28.5565 224.189C28.3871 224.03 28.2706 223.823 28.2229 223.595C28.1751 223.368 28.1984 223.131 28.2895 222.917C27.9299 222.666 27.5917 222.385 27.2786 222.077C25.6627 222.337 24.0063 222.092 22.5343 221.376C23.5244 220.696 24.3983 219.861 25.1225 218.903Z" fill="black"/>
</g>
<path opacity="0.1" d="M52.9633 209.974C52.8962 209.842 52.8559 209.698 52.8447 209.55C52.8334 209.402 52.8516 209.253 52.8979 209.113C52.9443 208.972 53.0181 208.841 53.115 208.729C53.2118 208.617 53.3299 208.525 53.4625 208.458C53.6208 208.377 53.7963 208.335 53.9742 208.337C54.2942 206.636 55.1621 205.087 56.4449 203.927C56.2375 203.12 56.1596 202.285 56.2142 201.454L60.3629 200.757L56.3317 200.5C56.4047 200.121 56.5056 199.748 56.6337 199.383C56.4753 199.278 56.3467 199.133 56.2604 198.963C56.1595 198.761 56.1213 198.533 56.1508 198.309C56.1803 198.085 56.276 197.875 56.4257 197.705C56.5754 197.536 56.7723 197.415 56.991 197.359C57.2097 197.303 57.4402 197.313 57.653 197.389C58.3939 196.333 59.3839 195.478 60.5348 194.898C61.8905 194.21 63.4158 193.927 64.9278 194.084C66.4399 194.241 67.8746 194.832 69.0598 195.785C70.2451 196.738 71.1307 198.013 71.6103 199.457C72.09 200.901 72.1435 202.453 71.7643 203.927C71.9614 204.012 72.1304 204.151 72.2514 204.328C72.3725 204.506 72.4405 204.714 72.4475 204.928C72.4546 205.143 72.4003 205.355 72.2912 205.54C72.1821 205.725 72.0226 205.875 71.8314 205.972C71.688 206.045 71.5308 206.086 71.3703 206.094C71.2097 206.101 71.0495 206.074 70.9002 206.014C70.4953 206.694 69.9905 207.308 69.4026 207.837C69.8325 209.512 69.7044 211.281 69.0377 212.876L63.488 211.415L68.4504 214.031C67.7054 215.221 66.6575 216.192 65.4144 216.843C64.1712 217.494 62.7774 217.803 61.3759 217.737C59.9743 217.671 58.6155 217.233 57.4387 216.469C56.2619 215.704 55.3094 214.639 54.6789 213.384C54.24 212.511 53.9642 211.565 53.8651 210.592C53.6747 210.575 53.4918 210.509 53.3339 210.401C53.1761 210.293 53.0484 210.146 52.9633 209.974Z" fill="#6C63FF"/>
<path opacity="0.1" d="M52.9633 209.974C52.8962 209.842 52.8559 209.698 52.8447 209.55C52.8334 209.402 52.8516 209.253 52.8979 209.112C52.9443 208.972 53.0181 208.841 53.115 208.729C53.2118 208.617 53.3299 208.525 53.4625 208.458C53.6208 208.377 53.7963 208.335 53.9742 208.337C54.2942 206.636 55.1621 205.087 56.4449 203.927C56.4114 203.797 56.382 203.663 56.3568 203.532C56.5073 203.64 56.6477 203.761 56.7763 203.894C57.5272 204.733 57.9131 205.821 58.6514 206.653C59.5764 207.608 60.8201 208.189 62.1456 208.286C63.4586 208.377 64.7777 208.271 66.0594 207.971C67.1164 207.699 68.2068 207.578 69.2977 207.614L69.6081 207.656L69.4152 207.837C69.8451 209.512 69.717 211.281 69.0502 212.876L63.488 211.415L68.4504 214.031C67.7054 215.221 66.6575 216.192 65.4144 216.843C64.1712 217.494 62.7774 217.803 61.3759 217.737C59.9743 217.671 58.6155 217.233 57.4387 216.469C56.2619 215.704 55.3094 214.639 54.6789 213.384C54.24 212.511 53.9642 211.564 53.8651 210.592C53.6747 210.574 53.4918 210.509 53.3339 210.401C53.1761 210.293 53.0484 210.146 52.9633 209.974Z" fill="black"/>
</g>
<path opacity="0.1" d="M145.286 21.7995C143.628 21.4844 141.913 21.6715 140.361 22.3371C139.431 22.7523 138.423 22.9669 137.404 22.9669C136.385 22.9669 135.378 22.7523 134.447 22.3371C133.347 21.8543 132.155 21.6167 130.954 21.6406C129.753 21.6645 128.572 21.9495 127.492 22.4757C126.875 22.8018 126.188 22.9733 125.491 22.9754C122.672 22.9754 120.327 20.1323 119.841 16.3822C120.403 15.9697 120.881 15.4538 121.25 14.862C122.903 12.1953 125.445 10.4819 128.335 10.4819C131.225 10.4819 133.742 12.1617 135.395 14.8116C135.889 15.6074 136.579 16.2626 137.398 16.7142C138.218 17.1657 139.14 17.3985 140.076 17.3901H140.152C142.375 17.3775 144.317 19.1791 145.286 21.7995Z" fill="#6C63FF"/>
<path opacity="0.1" d="M153.852 10.041L149.296 12.9344L152.061 7.89504C151.277 7.26967 150.307 6.92387 149.305 6.91236H149.233C148.917 6.91623 148.602 6.89234 148.29 6.84097L146.742 7.82365L147.405 6.61839C146.314 6.23837 145.369 5.52618 144.703 4.58164L141.93 6.31603L143.675 3.13702C142.06 1.19265 139.879 0 137.484 0C134.61 0 132.031 1.71339 130.395 4.38007C129.905 5.17658 129.214 5.82925 128.391 6.27179C127.568 6.71433 126.643 6.93098 125.709 6.89976H125.571C122.399 6.89976 119.824 10.4987 119.824 14.946C119.824 19.3932 122.399 22.988 125.571 22.988C126.268 22.9859 126.955 22.8144 127.572 22.4883C128.652 21.9616 129.833 21.6768 131.034 21.6536C132.235 21.6304 133.427 21.8694 134.527 22.3539C135.458 22.7678 136.465 22.9817 137.484 22.9817C138.503 22.9817 139.51 22.7678 140.441 22.3539C141.532 21.8796 142.713 21.6462 143.902 21.6694C145.091 21.6926 146.261 21.9719 147.333 22.4883C147.945 22.8057 148.624 22.9727 149.313 22.9754C152.489 22.9754 155.06 19.3764 155.06 14.9334C155.071 13.2272 154.656 11.5454 153.852 10.041Z" fill="#6C63FF"/>
<path opacity="0.1" d="M50.4842 79.9793C48.1154 79.5306 45.6669 79.7966 43.4495 80.7436C42.1188 81.3341 40.6787 81.6375 39.2231 81.6339C37.7675 81.6302 36.329 81.3197 35.0012 80.7226C33.4301 80.0329 31.7281 79.6934 30.0129 79.7275C28.2978 79.7616 26.6105 80.1685 25.068 80.9199C24.1858 81.3852 23.2043 81.6301 22.2072 81.6339C18.1802 81.6339 14.8285 77.573 14.1322 72.2144C14.9369 71.6274 15.6206 70.8902 16.1457 70.0433C18.5074 66.2343 22.1652 63.786 26.2719 63.786C30.3786 63.786 33.9903 66.2049 36.3394 69.9719C37.0453 71.1136 38.0346 72.0528 39.2107 72.6982C40.3869 73.3436 41.7099 73.6732 43.051 73.6548H43.1559C46.3355 73.6506 49.1125 76.2249 50.4842 79.9793Z" fill="#6C63FF"/>
<path opacity="0.1" d="M62.7329 63.1603L56.2226 67.2926L60.174 60.0989C59.0542 59.204 57.668 58.7089 56.2351 58.6921H56.1303C55.6779 58.6987 55.2259 58.665 54.7796 58.5913L52.5815 60.0149L53.5295 58.2931C51.9653 57.7459 50.6143 56.7168 49.6703 55.3535L45.7188 57.8732L48.2063 53.2957C45.895 50.5199 42.7825 48.8191 39.3596 48.8191C35.2529 48.8191 31.595 51.2632 29.2334 55.0721C28.5339 56.2151 27.5442 57.1519 26.3651 57.7871C25.1861 58.4223 23.8599 58.7331 22.5217 58.6879H22.2994C17.7648 58.6879 14.0902 63.8322 14.0902 70.1819C14.0902 76.5315 17.7648 81.6759 22.2994 81.6759C23.2972 81.6732 24.2792 81.4267 25.1602 80.9577C26.7031 80.2069 28.3905 79.8008 30.1056 79.7674C31.8208 79.7341 33.5227 80.0743 35.0935 80.7646C36.4212 81.3617 37.8598 81.6722 39.3154 81.6759C40.771 81.6795 42.211 81.3761 43.5417 80.7856C45.101 80.1081 46.7875 79.7743 48.487 79.8069C50.1864 79.8395 51.8589 80.2377 53.3911 80.9745C54.2638 81.4318 55.2334 81.6723 56.2184 81.6759C60.7529 81.6759 64.4276 76.5273 64.4276 70.1819C64.4592 67.7362 63.8764 65.3217 62.7329 63.1603Z" fill="#6C63FF"/>
<path opacity="0.1" d="M313.757 38.1775C315.415 37.8626 317.13 38.0498 318.682 38.7151C319.611 39.1305 320.618 39.3452 321.637 39.3452C322.655 39.3452 323.662 39.1305 324.592 38.7151C325.692 38.2323 326.884 37.9947 328.085 38.0186C329.286 38.0425 330.467 38.3275 331.547 38.8537C332.164 39.1793 332.85 39.3508 333.548 39.3534C336.367 39.3534 338.716 36.5104 339.202 32.7602C338.639 32.3488 338.161 31.8327 337.793 31.24C336.149 28.5649 333.577 26.8389 330.695 26.8389C327.814 26.8389 325.292 28.5187 323.64 31.1686C323.147 31.9679 322.456 32.6264 321.635 33.0803C320.813 33.5342 319.888 33.7682 318.95 33.7597H318.879C316.647 33.7555 314.701 35.5571 313.757 38.1775Z" fill="#6C63FF"/>
<path opacity="0.1" d="M305.166 26.419L309.722 29.304L306.953 24.2646C307.737 23.6398 308.707 23.2941 309.709 23.282H309.784C310.101 23.2856 310.416 23.2617 310.728 23.2106L312.272 24.1933L311.609 22.988C312.708 22.6143 313.661 21.9049 314.336 20.9596L317.1 22.715L315.351 19.536C316.97 17.5917 319.126 16.399 321.547 16.399C324.42 16.399 327 18.1124 328.636 20.7791C329.125 21.5759 329.816 22.2288 330.639 22.6714C331.462 23.1139 332.388 23.3304 333.321 23.2988H333.472C336.648 23.2988 339.219 26.8977 339.219 31.345C339.219 35.7922 336.648 39.387 333.472 39.387C332.775 39.3839 332.089 39.2125 331.471 38.8873C330.391 38.3606 329.21 38.0758 328.009 38.0526C326.808 38.0294 325.616 38.2684 324.517 38.7529C323.586 39.1667 322.579 39.3806 321.561 39.3806C320.543 39.3806 319.536 39.1667 318.606 38.7529C317.514 38.2786 316.333 38.0451 315.143 38.0683C313.953 38.0914 312.782 38.3708 311.71 38.8873C311.098 39.2051 310.419 39.3722 309.73 39.3744C306.559 39.3744 303.983 35.7754 303.983 31.3324C303.961 29.6213 304.367 27.932 305.166 26.419Z" fill="#6C63FF"/>
<path opacity="0.1" d="M258.243 326.25C284.885 326.25 306.483 322.49 306.483 317.851C306.483 313.212 284.885 309.452 258.243 309.452C231.601 309.452 210.003 313.212 210.003 317.851C210.003 322.49 231.601 326.25 258.243 326.25Z" fill="#6C63FF"/>
<path d="M232.995 277.956L158.248 276.994L158.47 275.075L162.082 243.415H227.726L232.554 275.075L232.924 277.477L232.995 277.956Z" fill="#D0D2D5"/>
<path opacity="0.1" d="M232.923 277.477H195.624L158.248 276.994L158.47 275.075H232.554L232.923 277.477Z" fill="black"/>
<path d="M244.975 275.558H145.79V277.956H244.975V275.558Z" fill="#D0D2D5"/>
<path d="M339.605 53.2621C339.611 51.6074 338.96 50.0181 337.796 48.8433C336.632 47.6685 335.05 47.0043 333.397 46.9965H56.4072C55.588 47.0003 54.7777 47.1657 54.0224 47.4831C53.2671 47.8004 52.5816 48.2637 52.0051 48.8463C51.4286 49.4289 50.9724 50.1194 50.6625 50.8785C50.3526 51.6377 50.1951 52.4505 50.1989 53.2705V221.355H339.605V53.2621Z" fill="#3F3D56"/>
<path d="M50.1989 219.675V239.362C50.1989 241.011 50.8529 242.592 52.0172 243.757C53.1815 244.923 54.7606 245.578 56.4071 245.578H333.397C335.043 245.578 336.622 244.923 337.787 243.757C338.951 242.592 339.605 241.011 339.605 239.362V219.675H50.1989Z" fill="#D0D2D5"/>
<path d="M329.064 57.5372H62.1792V208.639H329.064V57.5372Z" fill="white"/>
<path d="M196.341 238.107C197.321 238.108 198.288 237.886 199.17 237.457C200.051 237.029 200.824 236.405 201.429 235.633C201.613 235.398 201.781 235.151 201.932 234.894L198.379 234.294L202.218 234.319C202.586 233.518 202.786 232.649 202.807 231.768C202.828 230.886 202.669 230.009 202.339 229.191L197.192 231.862L201.941 228.368C201.495 227.601 200.896 226.933 200.182 226.407C199.467 225.882 198.652 225.508 197.788 225.311C196.923 225.114 196.027 225.096 195.155 225.26C194.284 225.424 193.455 225.766 192.721 226.264C191.987 226.762 191.363 227.406 190.888 228.155C190.413 228.905 190.097 229.745 189.96 230.622C189.822 231.499 189.866 232.395 190.09 233.254C190.313 234.113 190.71 234.917 191.257 235.616C191.86 236.391 192.631 237.017 193.512 237.449C194.393 237.88 195.36 238.105 196.341 238.107Z" fill="#6C63FF"/>
<path opacity="0.1" d="M202.809 245.573L232.63 275.558L228.053 245.573H202.809Z" fill="black"/>
<path opacity="0.1" d="M329.143 57.554H61.9695V66.3813H329.143V57.554Z" fill="#444053"/>
<path opacity="0.3" d="M234.987 59.091H154.976C154.842 59.091 154.733 59.2 154.733 59.3346V64.2186C154.733 64.3531 154.842 64.4622 154.976 64.4622H234.987C235.122 64.4622 235.231 64.3531 235.231 64.2186V59.3346C235.231 59.2 235.122 59.091 234.987 59.091Z" fill="#6C63FF"/>
<path d="M232.84 62.333H232.642L232.571 62.27C232.815 61.9764 232.949 61.6064 232.949 61.2243C232.946 60.9108 232.851 60.6049 232.675 60.3455C232.499 60.086 232.25 59.8845 231.96 59.7664C231.67 59.6483 231.351 59.6189 231.045 59.6819C230.738 59.7449 230.456 59.8975 230.236 60.1204C230.016 60.3433 229.866 60.6266 229.807 60.9344C229.747 61.2423 229.78 61.5609 229.901 61.8502C230.022 62.1395 230.225 62.3863 230.487 62.5597C230.748 62.7331 231.054 62.8252 231.367 62.8243C231.749 62.823 232.119 62.6878 232.412 62.4422L232.483 62.5052V62.7026L233.712 63.933L234.077 63.5634L232.84 62.333ZM231.367 62.333C231.148 62.3338 230.934 62.2695 230.751 62.1482C230.568 62.0269 230.426 61.854 230.341 61.6515C230.257 61.449 230.234 61.226 230.276 61.0106C230.319 60.7953 230.424 60.5974 230.579 60.4419C230.733 60.2864 230.931 60.1804 231.145 60.1373C231.36 60.0942 231.583 60.1159 231.786 60.1997C231.988 60.2835 232.162 60.4256 232.284 60.608C232.405 60.7904 232.47 61.0049 232.47 61.2243C232.472 61.3699 232.444 61.5142 232.389 61.6489C232.334 61.7837 232.253 61.9062 232.15 62.0093C232.047 62.1124 231.925 62.1941 231.791 62.2497C231.657 62.3052 231.513 62.3336 231.367 62.333Z" fill="#3F3D56"/>
<path opacity="0.8" d="M66.7725 63.5845C67.6644 63.5845 68.3875 62.8606 68.3875 61.9677C68.3875 61.0747 67.6644 60.3509 66.7725 60.3509C65.8805 60.3509 65.1575 61.0747 65.1575 61.9677C65.1575 62.8606 65.8805 63.5845 66.7725 63.5845Z" fill="#FA5959"/>
<path opacity="0.8" d="M71.2147 63.5845C72.1067 63.5845 72.8297 62.8606 72.8297 61.9677C72.8297 61.0747 72.1067 60.3509 71.2147 60.3509C70.3228 60.3509 69.5997 61.0747 69.5997 61.9677C69.5997 62.8606 70.3228 63.5845 71.2147 63.5845Z" fill="#FED253"/>
<path opacity="0.8" d="M75.6612 63.5845C76.5532 63.5845 77.2762 62.8606 77.2762 61.9677C77.2762 61.0747 76.5532 60.3509 75.6612 60.3509C74.7693 60.3509 74.0463 61.0747 74.0463 61.9677C74.0463 62.8606 74.7693 63.5845 75.6612 63.5845Z" fill="#8CCF4D"/>
<path d="M209.76 122.373C206.098 117.502 200.791 114.428 194.885 114.428C188.979 114.428 183.673 117.502 180.01 122.373C180.82 124.361 182.018 126.167 183.534 127.685C185.408 129.56 187.715 130.942 190.252 131.707C192.788 132.473 195.474 132.598 198.07 132.072C200.667 131.546 203.093 130.385 205.132 128.693C207.172 127.001 208.762 124.83 209.76 122.373Z" fill="#6C63FF"/>
<path d="M177.338 124.805C177.568 124.971 177.816 125.112 178.077 125.225C180.887 130.915 186.71 135.27 193.392 135.635V162.617C188.337 162.314 184.289 159.765 180.887 155.788C180.594 156.011 180.375 156.213 180.174 156.402C179.892 156.669 179.694 157.015 179.607 157.394C179.52 157.774 179.546 158.17 179.683 158.535C179.868 159.037 179.916 159.579 179.822 160.105C179.728 160.632 179.496 161.124 179.15 161.531C178.804 161.939 178.355 162.246 177.851 162.423C177.347 162.599 176.805 162.638 176.28 162.536C175.756 162.434 175.268 162.194 174.867 161.84C174.466 161.487 174.166 161.033 173.998 160.525C173.83 160.018 173.8 159.474 173.911 158.951C174.021 158.428 174.269 157.944 174.629 157.548C174.737 157.429 174.855 157.32 174.981 157.22C175.054 157.154 175.134 157.096 175.22 157.048C175.681 155.377 176.776 153.869 178.555 152.488C176.553 149.063 175.329 145.239 174.968 141.288C174.709 141.29 174.45 141.307 174.192 141.338C173.843 141.385 173.512 141.527 173.238 141.75C172.963 141.972 172.755 142.265 172.636 142.598C172.442 143.114 172.111 143.567 171.679 143.907C171.247 144.248 170.729 144.464 170.183 144.532C169.637 144.6 169.082 144.516 168.58 144.291C168.078 144.066 167.647 143.707 167.333 143.254C167.02 142.801 166.836 142.271 166.803 141.721C166.769 141.171 166.886 140.622 167.141 140.134C167.397 139.646 167.781 139.237 168.252 138.952C168.723 138.667 169.263 138.516 169.813 138.516C169.935 138.518 170.057 138.526 170.178 138.541C170.629 138.217 171.129 137.967 171.659 137.802C172.694 137.478 173.77 137.304 174.855 137.285C174.962 134.484 175.491 131.715 176.424 129.071C175.746 128.686 175.107 128.236 174.515 127.727C173.939 127.212 173.466 126.59 173.123 125.896C172.941 125.546 172.663 125.254 172.321 125.057C172.059 124.898 171.819 124.705 171.608 124.481C171.235 124.079 170.979 123.582 170.868 123.045C170.756 122.507 170.793 121.949 170.975 121.431C171.157 120.914 171.476 120.455 171.899 120.106C172.322 119.756 172.832 119.529 173.374 119.448C173.917 119.368 174.471 119.437 174.977 119.648C175.483 119.86 175.921 120.205 176.246 120.648C176.57 121.091 176.767 121.614 176.816 122.16C176.865 122.707 176.765 123.257 176.525 123.751C176.713 124.159 176.991 124.52 177.338 124.805Z" fill="#6C63FF"/>
<path d="M213.458 124.889C213.229 125.056 212.981 125.197 212.72 125.309C209.91 130.999 204.087 135.354 197.405 135.72V162.701C202.46 162.399 206.508 159.85 209.91 155.873C210.203 156.095 210.421 156.297 210.623 156.486C210.905 156.754 211.103 157.099 211.19 157.478C211.277 157.858 211.251 158.255 211.114 158.619C210.929 159.121 210.881 159.663 210.975 160.19C211.068 160.716 211.3 161.209 211.647 161.616C211.993 162.023 212.441 162.331 212.946 162.507C213.45 162.684 213.992 162.723 214.516 162.621C215.041 162.518 215.529 162.278 215.93 161.925C216.331 161.571 216.631 161.118 216.799 160.61C216.967 160.102 216.997 159.559 216.886 159.036C216.776 158.512 216.528 158.028 216.168 157.632C216.06 157.514 215.942 157.404 215.816 157.305C215.743 157.238 215.663 157.181 215.577 157.133C215.115 155.461 214.021 153.954 212.242 152.572C214.244 149.147 215.468 145.324 215.828 141.372C216.088 141.374 216.347 141.391 216.605 141.422C216.954 141.469 217.285 141.612 217.559 141.834C217.833 142.056 218.042 142.35 218.161 142.682C218.354 143.198 218.685 143.651 219.118 143.992C219.55 144.333 220.068 144.549 220.614 144.616C221.16 144.684 221.714 144.601 222.217 144.375C222.719 144.15 223.15 143.792 223.464 143.339C223.777 142.886 223.96 142.355 223.994 141.805C224.028 141.255 223.911 140.707 223.656 140.219C223.4 139.73 223.016 139.322 222.545 139.036C222.074 138.751 221.534 138.6 220.984 138.6C220.862 138.602 220.74 138.611 220.619 138.626C220.168 138.301 219.668 138.051 219.138 137.886C218.103 137.562 217.026 137.388 215.942 137.37C215.835 134.568 215.306 131.799 214.373 129.156C215.051 128.77 215.69 128.32 216.282 127.812C216.858 127.296 217.331 126.675 217.674 125.981C217.856 125.63 218.134 125.339 218.475 125.141C218.738 124.983 218.978 124.789 219.189 124.566C219.561 124.163 219.817 123.666 219.929 123.129C220.041 122.592 220.004 122.034 219.822 121.516C219.64 120.998 219.321 120.54 218.898 120.19C218.475 119.841 217.965 119.613 217.423 119.533C216.88 119.452 216.326 119.521 215.82 119.733C215.314 119.944 214.875 120.29 214.551 120.733C214.227 121.175 214.03 121.698 213.981 122.245C213.931 122.792 214.032 123.341 214.272 123.835C214.084 124.244 213.806 124.604 213.458 124.889Z" fill="#6C63FF"/>
<path d="M285.664 312.954C285.421 312.567 285.113 312.225 284.754 311.942C282.921 310.208 282.069 307.663 281.616 305.168C281.163 302.674 281.033 300.129 280.308 297.689C279.913 296.438 279.419 295.221 278.831 294.048C278.412 293.149 277.883 291.39 277.115 290.76C276.965 290.63 276.783 290.541 276.587 290.504C276.224 289.732 275.707 289.043 275.068 288.48C273.869 287.392 272.405 286.527 271.604 285.12C271.383 284.632 271.112 284.169 270.794 283.738C270.253 283.142 269.397 282.899 268.898 282.269C268.248 281.454 268.395 280.286 268.478 279.249C268.562 278.212 268.478 276.969 267.581 276.423C267.044 276.091 266.352 276.125 265.794 275.831C264.955 275.411 264.623 274.353 264.64 273.408C264.657 272.463 264.951 271.543 265.026 270.598C265.261 267.591 263.281 264.601 264.045 261.687C264.334 260.582 264.997 259.625 265.488 258.596C265.659 258.254 265.799 257.897 265.907 257.529C267.216 258.049 268.591 258.381 269.993 258.516C267.681 253.326 268.269 247.295 267.191 241.718L267.329 241.529C268.418 240.092 269.036 238.352 269.099 236.549C269.099 234.474 268.13 232.534 267.694 230.502C267.321 228.776 267.337 226.97 266.855 225.273C266.52 224.219 266.076 223.203 265.529 222.241C265.007 221.27 264.457 220.314 263.881 219.373C263.344 217.592 262.806 215.812 262.266 214.031C261.511 211.532 260.735 208.992 259.267 206.833C258.73 206.044 258.566 204.44 257.74 203.961C257.069 203.613 256.308 203.48 255.559 203.579C254.392 202.923 253.369 201.979 253.222 200.685C253.208 200.403 253.236 200.119 253.306 199.845H253.449C255.294 199.677 256.23 198.048 257.19 196.62C258.742 194.31 258.151 191.186 257.19 188.557C256.952 187.727 256.521 186.966 255.932 186.335C254.585 185.076 252.454 185.353 250.718 184.744C250.135 184.542 249.589 184.236 248.994 184.093C247.84 183.824 246.632 184.202 245.575 184.735C244.518 185.269 243.532 185.958 242.425 186.377C241.317 186.797 239.95 187.129 239.677 188.267C239.601 188.651 239.633 189.048 239.769 189.414C240.024 190.144 240.472 190.791 241.066 191.287C240.594 192.26 240.339 193.324 240.318 194.406C240.297 195.487 240.511 196.56 240.944 197.551C241.378 198.542 242.021 199.427 242.829 200.145C243.637 200.863 244.591 201.397 245.625 201.71C245.944 202.222 246.242 202.743 246.515 203.276C247.001 204.217 247.412 205.326 247.244 206.333C246.941 206.656 246.661 207 246.406 207.362C245.202 209.042 244.518 211.012 243.889 212.977C243.043 215.487 242.367 218.05 241.863 220.65C240.839 222.829 239.589 224.912 238.847 227.201C237.517 227.202 236.194 227.024 234.912 226.672L231.371 225.869C230.138 225.588 228.855 225.286 227.89 224.471C227.378 224.051 226.979 223.493 226.459 223.077C225.939 222.661 224.895 222.174 224.324 222.518C224.22 222.582 224.123 222.656 224.035 222.741C223.515 221.687 223.02 220.641 222.416 219.621C221.547 218.193 220.255 216.887 218.619 216.614C217.62 216.453 216.597 216.691 215.771 217.277C214.815 217.958 214.215 219.377 214.932 220.335C215.111 220.548 215.306 220.747 215.515 220.931C216.001 221.491 216.435 222.094 216.811 222.732C218.164 224.633 220.186 225.948 222.47 226.411L222.323 226.831C222.025 227.705 221.392 228.759 221.551 229.666L237.299 235.062C238.309 235.473 239.381 235.71 240.47 235.763C240.895 235.76 241.317 235.704 241.728 235.595V236.402V236.435C241.77 241.975 240.889 247.476 240.726 253.011C240.696 254.023 240.726 255.111 241.363 255.9C242.076 256.765 243.343 256.937 244.447 256.74C244.712 256.695 244.972 256.636 245.227 256.564C245.6 257.957 245.869 259.376 246.032 260.809L247.072 268.31C247.206 269.077 247.261 269.857 247.236 270.636C247.114 272.396 246.187 273.97 245.516 275.596C244.845 277.221 244.447 279.165 245.327 280.685C245.604 281.156 245.986 281.555 246.234 282.042C246.548 282.796 246.691 283.611 246.653 284.427C246.717 286.689 246.779 288.954 246.838 291.222C246.655 291.192 246.467 291.229 246.309 291.327C245.437 292.007 245.533 295.245 245.47 296.249C245.403 297.928 245.47 299.642 245.378 301.338C245.269 303.625 244.901 305.892 244.283 308.095C244.132 308.812 243.801 309.478 243.322 310.031C242.832 310.459 242.246 310.762 241.615 310.918C239.525 311.573 237.34 311.871 235.151 311.799C234.266 311.77 233.343 311.686 232.521 312.022C231.699 312.358 231.036 313.282 231.334 314.122C231.59 314.827 232.366 315.163 233.066 315.428C234.666 315.992 236.211 316.703 237.68 317.553C238.246 317.938 238.842 318.277 239.463 318.565C240.058 318.779 240.674 318.931 241.3 319.018L248.738 320.303C250.26 320.564 252.094 320.723 253.063 319.463C253.587 318.783 253.662 317.859 253.637 316.994C253.595 315.314 253.26 313.605 253.478 311.925C253.644 310.932 253.905 309.958 254.258 309.015C254.999 306.812 255.743 304.61 256.49 302.409C257.236 300.2 257.991 297.97 258.281 295.652C258.386 294.812 258.377 293.855 257.736 293.33C257.573 293.197 257.385 293.099 257.182 293.044C257.157 291.02 256.892 288.992 257.006 286.968C257.035 286.464 257.085 285.96 257.127 285.452C257.516 285.822 257.864 286.233 258.163 286.678C258.881 287.804 259.145 289.29 260.24 290.038C261.171 290.676 262.551 290.642 263.206 291.566C263.416 291.921 263.574 292.304 263.675 292.704C264.055 293.694 264.625 294.6 265.353 295.371C265.603 296.293 265.951 297.185 266.389 298.033C267.007 299.341 267.623 300.644 268.235 301.943C268.865 303.345 269.565 304.715 270.332 306.046C270.919 306.884 271.391 307.796 271.738 308.759C272.329 310.834 271.364 313.11 269.838 314.638C268.311 316.167 266.297 317.045 264.313 317.863C264.104 317.934 263.912 318.049 263.751 318.199C263.579 318.403 263.488 318.663 263.495 318.93C263.495 319.9 264.292 320.732 265.206 321.03C266.141 321.281 267.121 321.317 268.072 321.135C273.432 320.484 278.777 319.174 283.517 316.566C284.226 316.229 284.854 315.744 285.358 315.142C285.602 314.839 285.759 314.476 285.813 314.09C285.867 313.705 285.815 313.313 285.664 312.954Z" fill="url(#paint0_linear)"/>
<path d="M263.008 218.781C263.903 220.155 264.742 221.564 265.525 223.005C266.074 223.959 266.52 224.968 266.855 226.016C267.342 227.696 267.329 229.489 267.694 231.203C268.113 233.219 269.095 235.142 269.095 237.208C269.031 238.998 268.412 240.724 267.325 242.147C266.24 243.557 264.999 244.839 263.625 245.968C260.457 237.753 258.688 229.064 258.39 220.263C258.348 219.045 258.34 217.79 258.784 216.652C259.057 215.938 260.366 213.981 261.209 214.749C261.515 215.031 261.595 216.299 261.784 216.723C262.137 217.44 262.547 218.128 263.008 218.781Z" fill="#2F2E41"/>
<path opacity="0.1" d="M263.008 218.781C263.903 220.155 264.742 221.564 265.525 223.005C266.074 223.959 266.52 224.968 266.855 226.016C267.342 227.696 267.329 229.489 267.694 231.203C268.113 233.219 269.095 235.142 269.095 237.208C269.031 238.998 268.412 240.724 267.325 242.147C266.24 243.557 264.999 244.839 263.625 245.968C260.457 237.753 258.688 229.064 258.39 220.263C258.348 219.045 258.34 217.79 258.784 216.652C259.057 215.938 260.366 213.981 261.209 214.749C261.515 215.031 261.595 216.299 261.784 216.723C262.137 217.44 262.547 218.128 263.008 218.781Z" fill="black"/>
<path d="M152.417 161.487C149.099 164.805 148.701 166.266 146.708 166.925C144.716 167.585 137.547 171.301 139.799 175.421L145.857 179.427L146.033 179.545L146.96 182.333L137.799 198.661C137.799 198.661 122.697 191.749 121.217 201.974C119.736 212.2 120.675 214.993 120.277 220.452C119.878 225.911 120.407 227.491 119.077 227.491C117.747 227.491 117.223 223.904 117.223 223.904C117.223 223.904 117.139 223.74 116.992 223.434C115.017 219.323 101.606 189.141 123.087 168.395C123.087 168.395 133.037 167.74 135.433 156.318C137.085 148.423 142.866 149.103 146.708 150.711C147.957 151.201 149.121 151.886 150.156 152.74C151.088 153.623 151.917 154.609 152.627 155.679C153.722 157.409 154.318 159.581 152.417 161.487Z" fill="#D0D2D5"/>
<path opacity="0.1" d="M146.033 179.545L146.96 182.333L137.798 198.661C137.798 198.661 122.697 191.749 121.217 201.974C119.736 212.2 120.675 214.993 120.277 220.452C119.878 225.911 120.407 227.491 119.077 227.491C117.747 227.491 117.223 223.904 117.223 223.904C117.223 223.904 117.139 223.74 116.992 223.434C116.325 218.327 112.944 188.456 125.202 190.044C125.202 190.044 135.147 194.697 136.737 192.841C137.996 191.371 143.583 182.917 145.857 179.448L146.033 179.545Z" fill="black"/>
<path opacity="0.1" d="M152.627 155.654L146.57 162.545C146.57 162.545 139.535 171.969 138.075 171.57C137.638 171.475 137.193 171.423 136.746 171.415C136.259 171.377 135.792 171.203 135.4 170.911C135.009 170.619 134.707 170.222 134.532 169.766C134.356 169.309 134.313 168.813 134.408 168.333C134.503 167.853 134.732 167.41 135.068 167.056C137.467 164.536 141.888 159.753 142.178 158.69C142.467 157.628 145.282 152.971 146.691 150.69C147.94 151.18 149.104 151.865 150.139 152.719C151.077 153.6 151.911 154.584 152.627 155.654Z" fill="black"/>
<path d="M324.009 254.8C322.981 256.858 317.717 264.576 315.414 267.948L314.336 269.536C314.336 269.536 313.916 272.324 307.041 268.868C300.166 265.412 138.629 197.174 138.629 197.174L137.534 193.882L145.504 181.934L322.553 250.415C322.553 250.415 325.339 252.141 324.009 254.8Z" fill="#454B69"/>
<path opacity="0.1" d="M315.414 267.948L314.336 269.536C314.336 269.536 313.916 272.324 307.041 268.868C300.166 265.412 138.629 197.174 138.629 197.174L137.534 193.882L315.414 267.948Z" fill="black"/>
<path d="M217.977 223.375C216.337 223.106 214.517 223.236 213.242 224.303C212.471 224.956 211.984 225.884 211.882 226.89C211.773 228.053 212.449 229.435 213.615 229.523C213.896 229.526 214.176 229.508 214.454 229.468C215.191 229.465 215.926 229.527 216.652 229.653C218.081 229.788 219.521 229.577 220.851 229.039C222.182 228.502 223.364 227.652 224.299 226.562C225.302 225.303 223.98 224.757 222.797 224.505C221.178 224.16 219.597 223.635 217.977 223.375Z" fill="#FBBEBE"/>
<path d="M246.032 261.301L247.072 268.7C247.205 269.464 247.258 270.239 247.232 271.014C247.11 272.757 246.183 274.319 245.516 275.932C244.849 277.544 244.442 279.476 245.327 280.971C245.6 281.437 245.982 281.836 246.229 282.319C246.544 283.066 246.687 283.874 246.649 284.683L246.934 295.182C250.172 295.403 253.422 295.385 256.657 295.127C256.784 295.133 256.909 295.095 257.01 295.018C257.095 294.91 257.138 294.774 257.131 294.636C257.274 292.179 256.846 289.719 256.985 287.262C257.035 286.363 257.161 285.469 257.178 284.566C257.228 280.908 255.424 277.326 255.97 273.71C256.141 272.798 256.365 271.896 256.641 271.01C258.365 264.711 258 258.092 257.618 251.587C257.625 251.482 257.595 251.379 257.534 251.293C257.472 251.231 257.393 251.189 257.308 251.171C255.472 250.62 253.532 250.519 251.649 250.877C249.767 251.236 247.999 252.042 246.494 253.229C246.036 253.599 244.883 253.956 244.581 254.397C244.161 255.01 244.711 255.623 244.954 256.274C245.493 257.906 245.854 259.591 246.032 261.301Z" fill="#3F3D56"/>
<path opacity="0.1" d="M246.032 261.301L247.072 268.7C247.205 269.464 247.258 270.239 247.232 271.014C247.11 272.757 246.183 274.319 245.516 275.932C244.849 277.544 244.442 279.476 245.327 280.971C245.6 281.437 245.982 281.836 246.229 282.319C246.544 283.066 246.687 283.874 246.649 284.683L246.934 295.182C250.172 295.403 253.422 295.385 256.657 295.127C256.784 295.133 256.909 295.095 257.01 295.018C257.095 294.91 257.138 294.774 257.131 294.636C257.274 292.179 256.846 289.719 256.985 287.262C257.035 286.363 257.161 285.469 257.178 284.566C257.228 280.908 255.424 277.326 255.97 273.71C256.141 272.798 256.365 271.896 256.641 271.01C258.365 264.711 258 258.092 257.618 251.587C257.625 251.482 257.595 251.379 257.534 251.293C257.472 251.231 257.393 251.189 257.308 251.171C255.472 250.62 253.532 250.519 251.649 250.877C249.767 251.236 247.999 252.042 246.494 253.229C246.036 253.599 244.883 253.956 244.581 254.397C244.161 255.01 244.711 255.623 244.954 256.274C245.493 257.906 245.854 259.591 246.032 261.301Z" fill="black"/>
<path d="M265.483 259.071C264.993 260.091 264.334 261.04 264.04 262.136C263.277 265.03 265.253 268.016 265.018 270.98C264.942 271.917 264.653 272.828 264.632 273.765C264.611 274.701 264.955 275.743 265.785 276.175C266.343 276.461 267.044 276.431 267.568 276.759C268.453 277.301 268.554 278.531 268.466 279.564C268.378 280.597 268.231 281.752 268.885 282.558C269.385 283.184 270.24 283.428 270.777 284.02C271.097 284.445 271.368 284.904 271.587 285.389C272.388 286.791 273.852 287.648 275.052 288.748C276.251 289.849 277.266 291.461 276.73 292.986C276.335 294.103 275.228 294.791 274.162 295.316C272.218 296.278 270.167 297.004 268.051 297.479C267.823 297.548 267.583 297.561 267.35 297.517C267.114 297.431 266.903 297.286 266.738 297.097C265.5 295.883 264.221 294.611 263.65 292.977C263.549 292.581 263.391 292.202 263.18 291.852C262.526 290.932 261.146 290.966 260.215 290.332C259.124 289.588 258.86 288.114 258.147 287.001C257.434 285.889 256.389 285.225 255.63 284.247C254.346 282.617 254.032 280.442 253.113 278.581C252.723 277.792 252.224 277.053 251.913 276.23C251.6 275.243 251.407 274.222 251.339 273.189C250.747 268.284 249.241 263.346 250.189 258.491C250.399 257.424 250.722 256.391 250.856 255.291C251.087 253.389 250.722 251.44 251.003 249.542C251.01 249.304 251.07 249.07 251.18 248.858C251.29 248.647 251.446 248.463 251.636 248.32C251.863 248.218 252.11 248.168 252.358 248.173C254.845 248.04 257.338 248.096 259.816 248.341C261.075 248.463 262.484 248.719 263.239 249.748C263.881 250.63 263.847 251.81 264.053 252.881C264.309 254.199 264.976 254.917 265.676 255.95C266.377 256.983 265.999 258.004 265.483 259.071Z" fill="#3F3D56"/>
<path d="M255.806 293.196C256.469 293.196 257.203 293.154 257.715 293.574C258.352 294.099 258.361 295.06 258.26 295.879C257.966 298.18 257.215 300.394 256.464 302.598L254.233 309.154C253.88 310.089 253.618 311.057 253.453 312.043C253.235 313.723 253.57 315.403 253.612 317.082C253.612 317.922 253.558 318.855 253.033 319.531C252.085 320.753 250.235 320.61 248.713 320.371L241.284 319.111C240.657 319.027 240.041 318.877 239.446 318.661C238.826 318.375 238.23 318.039 237.663 317.658C236.193 316.817 234.649 316.114 233.049 315.558C232.353 315.298 231.573 314.966 231.321 314.265C231.023 313.425 231.686 312.501 232.508 312.165C233.33 311.829 234.249 311.913 235.138 311.938C237.325 312.008 239.508 311.712 241.598 311.064C242.228 310.91 242.811 310.608 243.301 310.183C243.799 309.623 244.138 308.94 244.283 308.205C244.916 306.016 245.293 303.761 245.407 301.485C245.495 299.806 245.436 298.126 245.504 296.446C245.545 295.451 245.449 292.247 246.322 291.562C246.988 291.05 249.732 292.465 250.634 292.671C252.329 293.06 254.067 293.236 255.806 293.196Z" fill="#2F2E41"/>
<path d="M280.278 297.866C281.004 300.272 281.117 302.817 281.587 305.29C282.057 307.764 282.888 310.288 284.721 312.009C285.077 312.293 285.385 312.633 285.631 313.017C285.786 313.377 285.838 313.772 285.783 314.16C285.727 314.547 285.566 314.912 285.316 315.214C284.81 315.811 284.182 316.293 283.475 316.629C278.739 319.216 273.407 320.522 268.034 321.168C267.084 321.347 266.107 321.311 265.173 321.063C264.259 320.753 263.449 319.93 263.466 318.964C263.457 318.699 263.547 318.44 263.717 318.237C263.881 318.088 264.074 317.975 264.284 317.905C266.264 317.091 268.273 316.205 269.804 314.701C271.335 313.198 272.296 310.922 271.704 308.881C271.354 307.925 270.879 307.02 270.291 306.189C269.524 304.869 268.824 303.51 268.193 302.12L266.347 298.243C265.806 297.11 265.261 295.942 265.169 294.691C267.487 294.795 269.803 294.423 271.973 293.599C272.986 293.185 273.929 292.619 274.771 291.919C275.484 291.323 276.134 290.21 277.095 290.987C277.866 291.608 278.353 293.359 278.806 294.246C279.395 295.41 279.887 296.621 280.278 297.866Z" fill="#2F2E41"/>
<path d="M253.23 201.617C253.415 203.23 254.975 204.293 256.465 204.931L247.039 207.942C247.647 206.774 247.156 205.347 246.552 204.162C246.06 203.225 245.499 202.325 244.874 201.47C244.782 201.34 244.677 201.177 244.744 201.025C244.804 200.927 244.898 200.853 245.009 200.82C246.947 199.954 248.943 199.06 251.062 198.745C251.674 198.657 252.832 198.413 253.289 199.035C253.746 199.656 253.142 200.874 253.23 201.617Z" fill="#FBBEBE"/>
<path opacity="0.1" d="M253.23 201.617C253.415 203.23 254.975 204.293 256.465 204.931L247.039 207.942C247.647 206.774 247.156 205.347 246.552 204.162C246.06 203.225 245.499 202.325 244.874 201.47C244.782 201.34 244.677 201.177 244.744 201.025C244.804 200.927 244.898 200.853 245.009 200.82C246.947 199.954 248.943 199.06 251.062 198.745C251.674 198.657 252.832 198.413 253.289 199.035C253.746 199.656 253.142 200.874 253.23 201.617Z" fill="black"/>
<path d="M247.752 202.923C251.834 202.923 255.143 199.611 255.143 195.524C255.143 191.437 251.834 188.124 247.752 188.124C243.67 188.124 240.361 191.437 240.361 195.524C240.361 199.611 243.67 202.923 247.752 202.923Z" fill="#FBBEBE"/>
<path d="M241.347 256.417C242.064 257.277 243.327 257.445 244.43 257.256C247.01 256.836 249.12 254.934 251.645 254.25C254.741 253.41 258.017 254.489 260.94 255.812C263.864 257.135 266.771 258.751 269.968 258.978C267.077 252.528 268.73 244.767 265.966 238.262C265.29 236.671 264.347 235.138 264.196 233.416C264.007 231.278 265.072 229.216 265.236 227.092C265.387 225.198 264.816 223.312 264.271 221.506C263.597 219.289 262.923 217.072 262.249 214.854C261.494 212.372 260.718 209.848 259.254 207.715C258.713 206.93 258.549 205.338 257.727 204.864C255.932 203.826 253.209 205.132 251.263 205.204C249.317 205.275 247.542 206.661 246.406 208.227C245.202 209.882 244.518 211.852 243.889 213.8C242.887 216.702 242.139 219.685 241.653 222.716C241.59 223.169 241.535 223.623 241.493 224.08C241.074 228.393 241.686 232.731 241.72 237.065V237.095C241.762 242.592 240.881 248.055 240.717 253.548C240.701 254.552 240.726 255.648 241.347 256.417Z" fill="#2F2E41"/>
<path opacity="0.1" d="M241.732 237.07C243.18 236.704 244.488 235.768 245.613 234.743C246.586 233.871 247.451 232.884 248.188 231.803C249.116 230.351 249.862 228.79 250.407 227.155C251.96 222.781 252.947 218.227 253.344 213.603C253.453 212.343 253.486 210.991 252.735 209.991C252.314 209.45 251.722 209.067 251.055 208.905C250.389 208.744 249.687 208.813 249.065 209.101C248.075 209.584 247.433 210.562 246.837 211.499C245.659 213.355 244.472 215.236 243.712 217.303C243.377 218.218 243.129 219.159 242.802 220.078C242.469 220.985 242.086 221.873 241.653 222.737C241.59 223.19 241.535 223.644 241.493 224.101C241.103 228.414 241.699 232.736 241.732 237.07Z" fill="black"/>
<path d="M252.714 209.181C253.465 210.18 253.432 211.545 253.327 212.788C252.931 217.412 251.944 221.967 250.391 226.34C249.849 227.989 249.104 229.563 248.171 231.026C247.433 232.106 246.568 233.092 245.596 233.966C244.17 235.268 242.433 236.431 240.499 236.448C239.411 236.397 238.339 236.162 237.328 235.755L221.577 230.388C221.417 229.489 222.051 228.44 222.348 227.574L223.187 225.084C223.427 224.395 223.703 223.652 224.328 223.278C224.953 222.905 225.943 223.417 226.464 223.833C226.984 224.248 227.378 224.794 227.89 225.219C228.859 226.025 230.138 226.327 231.371 226.604L234.908 227.398C236.19 227.75 237.513 227.926 238.842 227.923C239.828 224.908 241.703 222.254 242.764 219.264C243.092 218.348 243.339 217.403 243.679 216.488C244.434 214.422 245.625 212.545 246.804 210.684C247.395 209.752 248.037 208.773 249.031 208.286C249.656 207.994 250.36 207.924 251.03 208.087C251.699 208.249 252.293 208.635 252.714 209.181Z" fill="#2F2E41"/>
<path d="M250.11 197.195C250.054 196.709 249.902 196.238 249.665 195.81C249.541 195.595 249.353 195.426 249.126 195.326C248.9 195.226 248.648 195.202 248.406 195.255C247.668 195.486 247.421 196.628 246.649 196.666C246.129 196.691 245.755 196.162 245.592 195.667C245.428 195.171 245.34 194.604 244.95 194.256C244.678 194.052 244.367 193.909 244.035 193.836C242.244 193.269 240.394 192.223 239.799 190.438C239.659 190.076 239.625 189.681 239.702 189.3C239.975 188.171 241.38 187.831 242.45 187.423C243.52 187.016 244.547 186.319 245.596 185.79C246.645 185.26 247.861 184.887 249.015 185.155C249.6 185.34 250.175 185.554 250.739 185.798C252.475 186.403 254.602 186.121 255.949 187.377C256.537 188 256.968 188.754 257.207 189.578C258.147 192.19 258.742 195.289 257.186 197.582C256.225 198.997 255.294 200.614 253.449 200.786C251.301 200.967 250.449 199.018 250.11 197.195Z" fill="#2F2E41"/>
<g opacity="0.1">
<path opacity="0.1" d="M246.829 194.776C246.666 194.281 246.577 193.714 246.192 193.365C245.92 193.162 245.608 193.019 245.277 192.945C243.482 192.379 241.636 191.333 241.036 189.548C240.899 189.185 240.867 188.791 240.944 188.41C240.985 188.231 241.061 188.061 241.166 187.91C240.482 188.208 239.887 188.603 239.719 189.3C239.642 189.681 239.675 190.076 239.815 190.438C240.411 192.223 242.261 193.269 244.052 193.836C244.383 193.909 244.695 194.052 244.967 194.256C245.357 194.604 245.441 195.167 245.608 195.667C245.776 196.167 246.145 196.691 246.666 196.666C247.186 196.641 247.437 196.166 247.769 195.768C247.312 195.709 246.98 195.238 246.829 194.776Z" fill="black"/>
<path opacity="0.1" d="M254.682 199.883C252.526 200.08 251.674 198.115 251.326 196.305C251.28 195.82 251.137 195.349 250.906 194.919C250.782 194.705 250.594 194.536 250.367 194.437C250.141 194.337 249.889 194.312 249.648 194.365C249.265 194.551 248.944 194.842 248.721 195.205C248.913 195.223 249.099 195.286 249.264 195.388C249.428 195.49 249.567 195.628 249.669 195.793C249.907 196.221 250.058 196.692 250.114 197.179C250.453 198.989 251.305 200.958 253.469 200.757C254.325 200.662 255.115 200.252 255.684 199.606C255.368 199.754 255.029 199.847 254.682 199.883Z" fill="black"/>
</g>
<path d="M341.082 278.002C348.562 278.002 354.626 276.834 354.626 275.394C354.626 273.954 348.562 272.786 341.082 272.786C333.601 272.786 327.537 273.954 327.537 275.394C327.537 276.834 333.601 278.002 341.082 278.002Z" fill="#6C63FF"/>
<path d="M340.855 276.352C341.726 276.352 342.432 275.426 342.432 274.285C342.432 273.144 341.726 272.219 340.855 272.219C339.984 272.219 339.278 273.144 339.278 274.285C339.278 275.426 339.984 276.352 340.855 276.352Z" fill="#3F3D56"/>
<path d="M340.855 273.823C341.726 273.823 342.432 272.898 342.432 271.757C342.432 270.616 341.726 269.691 340.855 269.691C339.984 269.691 339.278 270.616 339.278 271.757C339.278 272.898 339.984 273.823 340.855 273.823Z" fill="#3F3D56"/>
<path d="M340.855 271.3C341.726 271.3 342.432 270.374 342.432 269.233C342.432 268.092 341.726 267.167 340.855 267.167C339.984 267.167 339.278 268.092 339.278 269.233C339.278 270.374 339.984 271.3 340.855 271.3Z" fill="#3F3D56"/>
<path d="M340.855 268.771C341.726 268.771 342.432 267.846 342.432 266.705C342.432 265.564 341.726 264.639 340.855 264.639C339.984 264.639 339.278 265.564 339.278 266.705C339.278 267.846 339.984 268.771 340.855 268.771Z" fill="#3F3D56"/>
<path d="M340.855 266.243C341.726 266.243 342.432 265.318 342.432 264.177C342.432 263.036 341.726 262.111 340.855 262.111C339.984 262.111 339.278 263.036 339.278 264.177C339.278 265.318 339.984 266.243 340.855 266.243Z" fill="#3F3D56"/>
<path d="M340.855 263.719C341.726 263.719 342.432 262.794 342.432 261.653C342.432 260.512 341.726 259.587 340.855 259.587C339.984 259.587 339.278 260.512 339.278 261.653C339.278 262.794 339.984 263.719 340.855 263.719Z" fill="#3F3D56"/>
<path d="M340.855 261.191C341.726 261.191 342.432 260.266 342.432 259.125C342.432 257.984 341.726 257.059 340.855 257.059C339.984 257.059 339.278 257.984 339.278 259.125C339.278 260.266 339.984 261.191 340.855 261.191Z" fill="#3F3D56"/>
<path d="M346.757 241.853C346.972 241.578 347.169 241.289 347.344 240.988L343.2 240.307L347.684 240.337C348.112 239.4 348.346 238.385 348.37 237.355C348.395 236.325 348.21 235.3 347.827 234.344L341.811 237.468L347.357 233.387C346.837 232.49 346.137 231.71 345.303 231.095C344.469 230.481 343.517 230.044 342.507 229.814C341.497 229.583 340.451 229.563 339.432 229.755C338.414 229.946 337.447 230.346 336.589 230.928C335.732 231.51 335.004 232.263 334.449 233.139C333.895 234.015 333.527 234.996 333.367 236.021C333.208 237.045 333.261 238.092 333.523 239.095C333.785 240.099 334.25 241.037 334.89 241.853C334.553 242.279 334.263 242.741 334.026 243.23L339.408 246.031L333.669 244.104C333.269 245.294 333.17 246.565 333.383 247.803C333.597 249.04 334.114 250.205 334.89 251.192C334.015 252.308 333.471 253.647 333.32 255.057C333.169 256.467 333.418 257.891 334.037 259.167C334.656 260.442 335.621 261.517 336.822 262.27C338.023 263.022 339.411 263.421 340.828 263.421C342.244 263.421 343.632 263.022 344.833 262.27C346.034 261.517 346.999 260.442 347.619 259.167C348.238 257.891 348.486 256.467 348.335 255.057C348.185 253.647 347.641 252.308 346.765 251.192C347.814 249.86 348.384 248.213 348.384 246.516C348.384 244.82 347.814 243.173 346.765 241.84L346.757 241.853Z" fill="#6C63FF"/>
<path opacity="0.1" d="M333.262 246.514C333.262 248.213 333.835 249.862 334.89 251.192C334.015 252.308 333.471 253.647 333.32 255.057C333.169 256.467 333.418 257.891 334.037 259.167C334.656 260.442 335.621 261.517 336.822 262.27C338.023 263.022 339.411 263.421 340.828 263.421C342.244 263.421 343.632 263.022 344.833 262.27C346.034 261.517 346.999 260.442 347.619 259.167C348.238 257.891 348.486 256.467 348.335 255.057C348.185 253.647 347.641 252.308 346.765 251.192C347.768 249.903 333.262 245.666 333.262 246.514Z" fill="black"/>
<path d="M62.2589 330C73.0292 330 81.7604 328.319 81.7604 326.246C81.7604 324.172 73.0292 322.491 62.2589 322.491C51.4885 322.491 42.7573 324.172 42.7573 326.246C42.7573 328.319 51.4885 330 62.2589 330Z" fill="#6C63FF"/>
<path d="M61.9317 327.627C63.1851 327.627 64.2011 326.294 64.2011 324.65C64.2011 323.005 63.1851 321.672 61.9317 321.672C60.6784 321.672 59.6624 323.005 59.6624 324.65C59.6624 326.294 60.6784 327.627 61.9317 327.627Z" fill="#3F3D56"/>
<path d="M61.9317 323.991C63.1851 323.991 64.2011 322.657 64.2011 321.013C64.2011 319.369 63.1851 318.036 61.9317 318.036C60.6784 318.036 59.6624 319.369 59.6624 321.013C59.6624 322.657 60.6784 323.991 61.9317 323.991Z" fill="#3F3D56"/>
<path d="M61.9317 320.354C63.1851 320.354 64.2011 319.021 64.2011 317.376C64.2011 315.732 63.1851 314.399 61.9317 314.399C60.6784 314.399 59.6624 315.732 59.6624 317.376C59.6624 319.021 60.6784 320.354 61.9317 320.354Z" fill="#3F3D56"/>
<path d="M61.9317 316.717C63.1851 316.717 64.2011 315.384 64.2011 313.74C64.2011 312.095 63.1851 310.762 61.9317 310.762C60.6784 310.762 59.6624 312.095 59.6624 313.74C59.6624 315.384 60.6784 316.717 61.9317 316.717Z" fill="#3F3D56"/>
<path d="M61.9317 313.08C63.1851 313.08 64.2011 311.747 64.2011 310.103C64.2011 308.458 63.1851 307.125 61.9317 307.125C60.6784 307.125 59.6624 308.458 59.6624 310.103C59.6624 311.747 60.6784 313.08 61.9317 313.08Z" fill="#3F3D56"/>
<path d="M61.9317 309.439C63.1851 309.439 64.2011 308.106 64.2011 306.462C64.2011 304.817 63.1851 303.484 61.9317 303.484C60.6784 303.484 59.6624 304.817 59.6624 306.462C59.6624 308.106 60.6784 309.439 61.9317 309.439Z" fill="#3F3D56"/>
<path d="M61.9317 306.803C63.1851 306.803 64.2011 305.469 64.2011 303.825C64.2011 302.181 63.1851 300.848 61.9317 300.848C60.6784 300.848 59.6624 302.181 59.6624 303.825C59.6624 305.469 60.6784 306.803 61.9317 306.803Z" fill="#3F3D56"/>
<path d="M70.4303 277.939C70.7374 277.538 71.0177 277.117 71.2692 276.679L65.3043 275.696L71.7558 275.747C72.3742 274.398 72.7113 272.937 72.7467 271.453C72.782 269.969 72.5148 268.494 71.9614 267.117L63.3118 271.627L71.2818 265.748C70.5355 264.451 69.5303 263.323 68.3289 262.433C67.1276 261.543 65.7558 260.91 64.2993 260.574C62.8428 260.238 61.3328 260.206 59.8635 260.481C58.3942 260.755 56.9972 261.33 55.7596 262.169C54.5219 263.007 53.4703 264.093 52.6703 265.357C51.8702 266.621 51.339 268.036 51.1097 269.515C50.8803 270.993 50.9579 272.503 51.3374 273.951C51.717 275.398 52.3904 276.751 53.3156 277.926C52.8257 278.54 52.4038 279.204 52.0572 279.908L59.8049 283.94L51.5454 281.164C50.9665 282.885 50.8268 284.724 51.1389 286.513C51.451 288.302 52.205 289.984 53.3324 291.407C52.0703 293.013 51.2852 294.942 51.0667 296.974C50.8483 299.006 51.2054 301.058 52.0972 302.897C52.989 304.735 54.3795 306.285 56.1097 307.369C57.8399 308.453 59.84 309.029 61.8813 309.029C63.9226 309.029 65.9227 308.453 67.653 307.369C69.3832 306.285 70.7737 304.735 71.6655 302.897C72.5573 301.058 72.9144 299.006 72.6959 296.974C72.4775 294.942 71.6924 293.013 70.4303 291.407C71.9388 289.488 72.7589 287.117 72.7589 284.675C72.7589 282.233 71.9388 279.862 70.4303 277.943V277.939Z" fill="#6C63FF"/>
<path opacity="0.1" d="M51.0043 284.687C51.0047 287.125 51.8247 289.492 53.3324 291.407C52.0703 293.013 51.2852 294.942 51.0667 296.974C50.8483 299.006 51.2054 301.058 52.0972 302.897C52.989 304.735 54.3795 306.285 56.1097 307.369C57.8399 308.453 59.84 309.029 61.8813 309.029C63.9226 309.029 65.9227 308.453 67.653 307.369C69.3832 306.285 70.7737 304.735 71.6655 302.897C72.5573 301.058 72.9144 299.006 72.6959 296.974C72.4775 294.942 71.6924 293.013 70.4303 291.407C71.8775 289.55 51.0043 283.449 51.0043 284.687Z" fill="black"/>
<defs>
<linearGradient id="paint0_linear" x1="252.476" y1="321.826" x2="246.912" y2="184.032" gradientUnits="userSpaceOnUse">
<stop stop-color="#808080" stop-opacity="0.25"/>
<stop offset="0.54" stop-color="#808080" stop-opacity="0.12"/>
<stop offset="1" stop-color="#808080" stop-opacity="0.1"/>
</linearGradient>
</defs>
</svg>
