<svg width="1441" height="900" viewBox="0 0 1441 900" fill="none" xmlns="http://www.w3.org/2000/svg">
<rect width="1440" height="900" fill="#2F2F2F"/>
<path d="M292.772 300.947C150.412 322.549 38.2741 411.292 0 452.963V804L1440 795.999V489.967C1421.61 503.468 1429.56 498.968 1405.21 512.969C1357.89 540.167 1283.42 478.466 1255.59 452.963C1228.91 428.96 1145.13 372.965 1030.91 394.457C943 411 894.719 466.464 806.738 476.465C718.757 486.467 650.465 481.498 577.094 431.461C507.5 384 470.721 273.944 292.772 300.947Z" fill="#444040"/>
<path d="M284.772 396.947C142.412 418.549 38.2741 509.829 0 551.5V900H1440.5L1440 581L1418.5 595.5L1397.21 608.969C1349.89 636.167 1275.42 574.466 1247.59 548.963C1220.91 524.96 1137.93 473.751 1022.91 490.457C940 502.5 886.719 562.464 798.738 572.465C710.757 582.467 642.781 577.03 569.094 527.461C503 483 462.721 369.944 284.772 396.947Z" fill="#C80F0F"/>
</svg>
