<svg width="1676" height="1177" viewBox="0 0 1676 1177" fill="none" xmlns="http://www.w3.org/2000/svg">
<path d="M1527 0H87V1024H1527V0Z" fill="#FDFCFF"/>
<path d="M296.329 807.5C296.329 807.5 221.329 801.5 12.8291 690C6.32908 776.333 -4.87092 953.9 2.32908 973.5C11.3291 998 63.3291 1116.5 98.3291 1129C133.329 1141.5 309.829 1133.5 386.329 1151.5C462.829 1169.5 561.329 1165.5 606.829 1174.5C652.329 1183.5 1307.83 1154.5 1350.33 1151.5C1384.33 1149.1 1553.5 1114.17 1633.83 1097C1669.83 961.333 1715.63 702.2 1610.83 751C1479.83 812 1447.83 769.5 1034.83 822.5C621.829 875.5 296.329 807.5 296.329 807.5Z" fill="#E4E3FF"/>
</svg>
