<svg width="965" height="363" viewBox="0 0 965 363" fill="none" xmlns="http://www.w3.org/2000/svg">
<path fill-rule="evenodd" clip-rule="evenodd" d="M601 118C601 183.17 548.17 236 483 236C417.83 236 365 183.17 365 118C365 52.8304 417.83 0 483 0C548.17 0 601 52.8304 601 118ZM472.02 56.1816C471.805 50.7364 476.162 46.2048 481.611 46.2048C487.036 46.2048 491.382 50.6969 491.204 56.1186L488.175 148.194C488.064 151.572 485.294 154.253 481.914 154.253C478.55 154.253 475.787 151.597 475.654 148.235L472.02 56.1816ZM482.645 189.084C489.907 189.084 495.795 183.197 495.795 175.934C495.795 168.671 489.907 162.783 482.645 162.783C475.382 162.783 469.494 168.671 469.494 175.934C469.494 183.197 475.382 189.084 482.645 189.084Z" fill="#0F003A"/>
<path d="M25.152 337.448C20.9707 337.448 17.1307 336.467 13.632 334.504C10.1333 332.541 7.36 329.832 5.312 326.376C3.264 322.877 2.24 318.931 2.24 314.536C2.24 310.184 3.264 306.28 5.312 302.824C7.36 299.325 10.1333 296.595 13.632 294.632C17.1307 292.669 20.9707 291.688 25.152 291.688C29.376 291.688 33.216 292.669 36.672 294.632C40.1707 296.595 42.9227 299.325 44.928 302.824C46.976 306.28 48 310.184 48 314.536C48 318.931 46.976 322.877 44.928 326.376C42.9227 329.832 40.1707 332.541 36.672 334.504C33.1733 336.467 29.3333 337.448 25.152 337.448ZM25.152 329.448C27.84 329.448 30.208 328.851 32.256 327.656C34.304 326.419 35.904 324.669 37.056 322.408C38.208 320.147 38.784 317.523 38.784 314.536C38.784 311.549 38.208 308.947 37.056 306.728C35.904 304.467 34.304 302.739 32.256 301.544C30.208 300.349 27.84 299.752 25.152 299.752C22.464 299.752 20.0747 300.349 17.984 301.544C15.936 302.739 14.336 304.467 13.184 306.728C12.032 308.947 11.456 311.549 11.456 314.536C11.456 317.523 12.032 320.147 13.184 322.408C14.336 324.669 15.936 326.419 17.984 327.656C20.0747 328.851 22.464 329.448 25.152 329.448ZM63.626 306.664C64.778 305.043 66.3567 303.699 68.362 302.632C70.41 301.523 72.7353 300.968 75.338 300.968C78.3673 300.968 81.098 301.715 83.53 303.208C86.0047 304.701 87.946 306.835 89.354 309.608C90.8047 312.339 91.53 315.517 91.53 319.144C91.53 322.771 90.8047 325.992 89.354 328.808C87.946 331.581 86.0047 333.736 83.53 335.272C81.098 336.808 78.3673 337.576 75.338 337.576C72.7353 337.576 70.4313 337.043 68.426 335.976C66.4633 334.909 64.8633 333.565 63.626 331.944V353.896H54.666V301.544H63.626V306.664ZM82.378 319.144C82.378 317.011 81.93 315.176 81.034 313.64C80.1807 312.061 79.0287 310.867 77.578 310.056C76.17 309.245 74.634 308.84 72.97 308.84C71.3487 308.84 69.8127 309.267 68.362 310.12C66.954 310.931 65.802 312.125 64.906 313.704C64.0527 315.283 63.626 317.139 63.626 319.272C63.626 321.405 64.0527 323.261 64.906 324.84C65.802 326.419 66.954 327.635 68.362 328.488C69.8127 329.299 71.3487 329.704 72.97 329.704C74.634 329.704 76.17 329.277 77.578 328.424C79.0287 327.571 80.1807 326.355 81.034 324.776C81.93 323.197 82.378 321.32 82.378 319.144ZM107.001 306.664C108.153 305.043 109.732 303.699 111.737 302.632C113.785 301.523 116.11 300.968 118.713 300.968C121.742 300.968 124.473 301.715 126.905 303.208C129.38 304.701 131.321 306.835 132.729 309.608C134.18 312.339 134.905 315.517 134.905 319.144C134.905 322.771 134.18 325.992 132.729 328.808C131.321 331.581 129.38 333.736 126.905 335.272C124.473 336.808 121.742 337.576 118.713 337.576C116.11 337.576 113.806 337.043 111.801 335.976C109.838 334.909 108.238 333.565 107.001 331.944V353.896H98.041V301.544H107.001V306.664ZM125.753 319.144C125.753 317.011 125.305 315.176 124.409 313.64C123.556 312.061 122.404 310.867 120.953 310.056C119.545 309.245 118.009 308.84 116.345 308.84C114.724 308.84 113.188 309.267 111.737 310.12C110.329 310.931 109.177 312.125 108.281 313.704C107.428 315.283 107.001 317.139 107.001 319.272C107.001 321.405 107.428 323.261 108.281 324.84C109.177 326.419 110.329 327.635 111.737 328.488C113.188 329.299 114.724 329.704 116.345 329.704C118.009 329.704 119.545 329.277 120.953 328.424C122.404 327.571 123.556 326.355 124.409 324.776C125.305 323.197 125.753 321.32 125.753 319.144ZM154.984 337.576C152.083 337.576 149.48 337.064 147.176 336.04C144.872 334.973 143.037 333.544 141.672 331.752C140.349 329.96 139.624 327.976 139.496 325.8H148.52C148.691 327.165 149.352 328.296 150.504 329.192C151.699 330.088 153.171 330.536 154.92 330.536C156.627 330.536 157.949 330.195 158.888 329.512C159.869 328.829 160.36 327.955 160.36 326.888C160.36 325.736 159.763 324.883 158.568 324.328C157.416 323.731 155.56 323.091 153 322.408C150.355 321.768 148.179 321.107 146.472 320.424C144.808 319.741 143.357 318.696 142.12 317.288C140.925 315.88 140.328 313.981 140.328 311.592C140.328 309.629 140.883 307.837 141.992 306.216C143.144 304.595 144.765 303.315 146.856 302.376C148.989 301.437 151.485 300.968 154.344 300.968C158.568 300.968 161.939 302.035 164.456 304.168C166.973 306.259 168.36 309.096 168.616 312.68H160.04C159.912 311.272 159.315 310.163 158.248 309.352C157.224 308.499 155.837 308.072 154.088 308.072C152.467 308.072 151.208 308.371 150.312 308.968C149.459 309.565 149.032 310.397 149.032 311.464C149.032 312.659 149.629 313.576 150.824 314.216C152.019 314.813 153.875 315.432 156.392 316.072C158.952 316.712 161.064 317.373 162.728 318.056C164.392 318.739 165.821 319.805 167.016 321.256C168.253 322.664 168.893 324.541 168.936 326.888C168.936 328.936 168.36 330.771 167.208 332.392C166.099 334.013 164.477 335.293 162.344 336.232C160.253 337.128 157.8 337.576 154.984 337.576ZM187.875 291.56L186.851 322.472H179.299L178.211 291.56H187.875ZM183.267 337.448C181.646 337.448 180.302 336.957 179.235 335.976C178.211 334.952 177.699 333.693 177.699 332.2C177.699 330.707 178.211 329.469 179.235 328.488C180.302 327.464 181.646 326.952 183.267 326.952C184.846 326.952 186.147 327.464 187.171 328.488C188.195 329.469 188.707 330.707 188.707 332.2C188.707 333.693 188.195 334.952 187.171 335.976C186.147 336.957 184.846 337.448 183.267 337.448ZM229.59 337.448C226.475 337.448 223.659 336.915 221.142 335.848C218.667 334.781 216.705 333.245 215.254 331.24C213.803 329.235 213.057 326.867 213.014 324.136H222.614C222.742 325.971 223.382 327.421 224.534 328.488C225.729 329.555 227.35 330.088 229.398 330.088C231.489 330.088 233.131 329.597 234.326 328.616C235.521 327.592 236.118 326.269 236.118 324.648C236.118 323.325 235.713 322.237 234.902 321.384C234.091 320.531 233.067 319.869 231.83 319.4C230.635 318.888 228.971 318.333 226.838 317.736C223.937 316.883 221.569 316.051 219.734 315.24C217.942 314.387 216.385 313.128 215.062 311.464C213.782 309.757 213.142 307.496 213.142 304.68C213.142 302.035 213.803 299.731 215.126 297.768C216.449 295.805 218.305 294.312 220.694 293.288C223.083 292.221 225.814 291.688 228.886 291.688C233.494 291.688 237.227 292.819 240.086 295.08C242.987 297.299 244.587 300.413 244.886 304.424H235.03C234.945 302.888 234.283 301.629 233.046 300.648C231.851 299.624 230.251 299.112 228.246 299.112C226.497 299.112 225.089 299.56 224.022 300.456C222.998 301.352 222.486 302.653 222.486 304.36C222.486 305.555 222.87 306.557 223.638 307.368C224.449 308.136 225.43 308.776 226.582 309.288C227.777 309.757 229.441 310.312 231.574 310.952C234.475 311.805 236.843 312.659 238.678 313.512C240.513 314.365 242.091 315.645 243.414 317.352C244.737 319.059 245.398 321.299 245.398 324.072C245.398 326.461 244.779 328.68 243.542 330.728C242.305 332.776 240.491 334.419 238.102 335.656C235.713 336.851 232.875 337.448 229.59 337.448ZM268.91 337.576C265.497 337.576 262.425 336.829 259.694 335.336C256.963 333.8 254.809 331.645 253.23 328.872C251.694 326.099 250.926 322.899 250.926 319.272C250.926 315.645 251.715 312.445 253.294 309.672C254.915 306.899 257.113 304.765 259.886 303.272C262.659 301.736 265.753 300.968 269.166 300.968C272.579 300.968 275.673 301.736 278.446 303.272C281.219 304.765 283.395 306.899 284.974 309.672C286.595 312.445 287.406 315.645 287.406 319.272C287.406 322.899 286.574 326.099 284.91 328.872C283.289 331.645 281.07 333.8 278.254 335.336C275.481 336.829 272.366 337.576 268.91 337.576ZM268.91 329.768C270.531 329.768 272.046 329.384 273.454 328.616C274.905 327.805 276.057 326.611 276.91 325.032C277.763 323.453 278.19 321.533 278.19 319.272C278.19 315.901 277.294 313.32 275.502 311.528C273.753 309.693 271.598 308.776 269.038 308.776C266.478 308.776 264.323 309.693 262.574 311.528C260.867 313.32 260.014 315.901 260.014 319.272C260.014 322.643 260.846 325.245 262.51 327.08C264.217 328.872 266.35 329.768 268.91 329.768ZM338.011 301.032C342.363 301.032 345.861 302.376 348.507 305.064C351.195 307.709 352.539 311.421 352.539 316.2V337H343.579V317.416C343.579 314.643 342.875 312.531 341.467 311.08C340.059 309.587 338.139 308.84 335.707 308.84C333.275 308.84 331.333 309.587 329.883 311.08C328.475 312.531 327.771 314.643 327.771 317.416V337H318.811V317.416C318.811 314.643 318.107 312.531 316.699 311.08C315.291 309.587 313.371 308.84 310.939 308.84C308.464 308.84 306.501 309.587 305.051 311.08C303.643 312.531 302.939 314.643 302.939 317.416V337H293.979V301.544H302.939V305.832C304.091 304.339 305.563 303.165 307.355 302.312C309.189 301.459 311.195 301.032 313.371 301.032C316.144 301.032 318.619 301.629 320.795 302.824C322.971 303.976 324.656 305.64 325.851 307.816C327.003 305.768 328.667 304.125 330.843 302.888C333.061 301.651 335.451 301.032 338.011 301.032ZM394.001 318.504C394.001 319.784 393.916 320.936 393.745 321.96H367.825C368.038 324.52 368.934 326.525 370.513 327.976C372.092 329.427 374.033 330.152 376.337 330.152C379.665 330.152 382.033 328.723 383.441 325.864H393.105C392.081 329.277 390.118 332.093 387.217 334.312C384.316 336.488 380.753 337.576 376.529 337.576C373.116 337.576 370.044 336.829 367.313 335.336C364.625 333.8 362.513 331.645 360.977 328.872C359.484 326.099 358.737 322.899 358.737 319.272C358.737 315.603 359.484 312.381 360.977 309.608C362.47 306.835 364.561 304.701 367.249 303.208C369.937 301.715 373.03 300.968 376.529 300.968C379.9 300.968 382.908 301.693 385.553 303.144C388.241 304.595 390.31 306.664 391.761 309.352C393.254 311.997 394.001 315.048 394.001 318.504ZM384.721 315.944C384.678 313.64 383.846 311.805 382.225 310.44C380.604 309.032 378.62 308.328 376.273 308.328C374.054 308.328 372.177 309.011 370.641 310.376C369.148 311.699 368.23 313.555 367.889 315.944H384.721ZM410.973 308.904V326.056C410.973 327.251 411.25 328.125 411.805 328.68C412.402 329.192 413.384 329.448 414.749 329.448H418.909V337H413.277C405.725 337 401.949 333.331 401.949 325.992V308.904H397.725V301.544H401.949V292.776H410.973V301.544H418.909V308.904H410.973ZM445.322 301.032C448.01 301.032 450.399 301.629 452.49 302.824C454.58 303.976 456.202 305.704 457.354 308.008C458.548 310.269 459.146 313 459.146 316.2V337H450.186V317.416C450.186 314.6 449.482 312.445 448.074 310.952C446.666 309.416 444.746 308.648 442.314 308.648C439.839 308.648 437.876 309.416 436.426 310.952C435.018 312.445 434.314 314.6 434.314 317.416V337H425.354V289.64H434.314V305.96C435.466 304.424 437.002 303.229 438.922 302.376C440.842 301.48 442.975 301.032 445.322 301.032ZM472.21 297.32C470.631 297.32 469.309 296.829 468.242 295.848C467.218 294.824 466.706 293.565 466.706 292.072C466.706 290.579 467.218 289.341 468.242 288.36C469.309 287.336 470.631 286.824 472.21 286.824C473.789 286.824 475.09 287.336 476.114 288.36C477.181 289.341 477.714 290.579 477.714 292.072C477.714 293.565 477.181 294.824 476.114 295.848C475.09 296.829 473.789 297.32 472.21 297.32ZM476.626 301.544V337H467.666V301.544H476.626ZM505.127 301.032C509.351 301.032 512.764 302.376 515.367 305.064C517.969 307.709 519.271 311.421 519.271 316.2V337H510.311V317.416C510.311 314.6 509.607 312.445 508.199 310.952C506.791 309.416 504.871 308.648 502.439 308.648C499.964 308.648 498.001 309.416 496.551 310.952C495.143 312.445 494.439 314.6 494.439 317.416V337H485.479V301.544H494.439V305.96C495.633 304.424 497.148 303.229 498.983 302.376C500.86 301.48 502.908 301.032 505.127 301.032ZM541.679 300.968C544.324 300.968 546.65 301.501 548.655 302.568C550.66 303.592 552.239 304.936 553.391 306.6V301.544H562.415V337.256C562.415 340.541 561.754 343.464 560.431 346.024C559.108 348.627 557.124 350.675 554.479 352.168C551.834 353.704 548.634 354.472 544.879 354.472C539.844 354.472 535.706 353.299 532.463 350.952C529.263 348.605 527.45 345.405 527.023 341.352H535.919C536.388 342.973 537.391 344.253 538.927 345.192C540.506 346.173 542.404 346.664 544.623 346.664C547.226 346.664 549.338 345.875 550.959 344.296C552.58 342.76 553.391 340.413 553.391 337.256V331.752C552.239 333.416 550.639 334.803 548.591 335.912C546.586 337.021 544.282 337.576 541.679 337.576C538.692 337.576 535.962 336.808 533.487 335.272C531.012 333.736 529.05 331.581 527.599 328.808C526.191 325.992 525.487 322.771 525.487 319.144C525.487 315.56 526.191 312.381 527.599 309.608C529.05 306.835 530.991 304.701 533.423 303.208C535.898 301.715 538.65 300.968 541.679 300.968ZM553.391 319.272C553.391 317.096 552.964 315.24 552.111 313.704C551.258 312.125 550.106 310.931 548.655 310.12C547.204 309.267 545.647 308.84 543.983 308.84C542.319 308.84 540.783 309.245 539.375 310.056C537.967 310.867 536.815 312.061 535.919 313.64C535.066 315.176 534.639 317.011 534.639 319.144C534.639 321.277 535.066 323.155 535.919 324.776C536.815 326.355 537.967 327.571 539.375 328.424C540.826 329.277 542.362 329.704 543.983 329.704C545.647 329.704 547.204 329.299 548.655 328.488C550.106 327.635 551.258 326.44 552.111 324.904C552.964 323.325 553.391 321.448 553.391 319.272ZM635.568 301.544L625.2 337H615.536L609.072 312.232L602.608 337H592.88L582.448 301.544H591.536L597.808 328.552L604.592 301.544H614.064L620.72 328.488L626.992 301.544H635.568ZM673.376 318.504C673.376 319.784 673.291 320.936 673.12 321.96H647.2C647.413 324.52 648.309 326.525 649.888 327.976C651.467 329.427 653.408 330.152 655.712 330.152C659.04 330.152 661.408 328.723 662.816 325.864H672.48C671.456 329.277 669.493 332.093 666.592 334.312C663.691 336.488 660.128 337.576 655.904 337.576C652.491 337.576 649.419 336.829 646.688 335.336C644 333.8 641.888 331.645 640.352 328.872C638.859 326.099 638.112 322.899 638.112 319.272C638.112 315.603 638.859 312.381 640.352 309.608C641.845 306.835 643.936 304.701 646.624 303.208C649.312 301.715 652.405 300.968 655.904 300.968C659.275 300.968 662.283 301.693 664.928 303.144C667.616 304.595 669.685 306.664 671.136 309.352C672.629 311.997 673.376 315.048 673.376 318.504ZM664.096 315.944C664.053 313.64 663.221 311.805 661.6 310.44C659.979 309.032 657.995 308.328 655.648 308.328C653.429 308.328 651.552 309.011 650.016 310.376C648.523 311.699 647.605 313.555 647.264 315.944H664.096ZM699.564 301.032C703.788 301.032 707.201 302.376 709.804 305.064C712.407 307.709 713.708 311.421 713.708 316.2V337H704.748V317.416C704.748 314.6 704.044 312.445 702.636 310.952C701.228 309.416 699.308 308.648 696.876 308.648C694.401 308.648 692.439 309.416 690.988 310.952C689.58 312.445 688.876 314.6 688.876 317.416V337H679.916V301.544H688.876V305.96C690.071 304.424 691.585 303.229 693.42 302.376C695.297 301.48 697.345 301.032 699.564 301.032ZM732.661 308.904V326.056C732.661 327.251 732.938 328.125 733.493 328.68C734.09 329.192 735.071 329.448 736.437 329.448H740.597V337H734.965C727.413 337 723.637 333.331 723.637 325.992V308.904H719.413V301.544H723.637V292.776H732.661V301.544H740.597V308.904H732.661ZM811.443 301.544L801.075 337H791.411L784.947 312.232L778.483 337H768.755L758.323 301.544H767.411L773.683 328.552L780.467 301.544H789.939L796.595 328.488L802.867 301.544H811.443ZM825.251 307.048C826.403 305.171 827.896 303.699 829.731 302.632C831.608 301.565 833.742 301.032 836.131 301.032V310.44H833.763C830.947 310.44 828.814 311.101 827.363 312.424C825.955 313.747 825.251 316.051 825.251 319.336V337H816.291V301.544H825.251V307.048ZM857.91 337.576C854.497 337.576 851.425 336.829 848.694 335.336C845.963 333.8 843.809 331.645 842.23 328.872C840.694 326.099 839.926 322.899 839.926 319.272C839.926 315.645 840.715 312.445 842.294 309.672C843.915 306.899 846.113 304.765 848.886 303.272C851.659 301.736 854.753 300.968 858.166 300.968C861.579 300.968 864.673 301.736 867.446 303.272C870.219 304.765 872.395 306.899 873.974 309.672C875.595 312.445 876.406 315.645 876.406 319.272C876.406 322.899 875.574 326.099 873.91 328.872C872.289 331.645 870.07 333.8 867.254 335.336C864.481 336.829 861.366 337.576 857.91 337.576ZM857.91 329.768C859.531 329.768 861.046 329.384 862.454 328.616C863.905 327.805 865.057 326.611 865.91 325.032C866.763 323.453 867.19 321.533 867.19 319.272C867.19 315.901 866.294 313.32 864.502 311.528C862.753 309.693 860.598 308.776 858.038 308.776C855.478 308.776 853.323 309.693 851.574 311.528C849.867 313.32 849.014 315.901 849.014 319.272C849.014 322.643 849.846 325.245 851.51 327.08C853.217 328.872 855.35 329.768 857.91 329.768ZM902.627 301.032C906.851 301.032 910.264 302.376 912.867 305.064C915.469 307.709 916.771 311.421 916.771 316.2V337H907.811V317.416C907.811 314.6 907.107 312.445 905.699 310.952C904.291 309.416 902.371 308.648 899.939 308.648C897.464 308.648 895.501 309.416 894.051 310.952C892.643 312.445 891.939 314.6 891.939 317.416V337H882.979V301.544H891.939V305.96C893.133 304.424 894.648 303.229 896.483 302.376C898.36 301.48 900.408 301.032 902.627 301.032ZM939.179 300.968C941.824 300.968 944.15 301.501 946.155 302.568C948.16 303.592 949.739 304.936 950.891 306.6V301.544H959.915V337.256C959.915 340.541 959.254 343.464 957.931 346.024C956.608 348.627 954.624 350.675 951.979 352.168C949.334 353.704 946.134 354.472 942.379 354.472C937.344 354.472 933.206 353.299 929.963 350.952C926.763 348.605 924.95 345.405 924.523 341.352H933.419C933.888 342.973 934.891 344.253 936.427 345.192C938.006 346.173 939.904 346.664 942.123 346.664C944.726 346.664 946.838 345.875 948.459 344.296C950.08 342.76 950.891 340.413 950.891 337.256V331.752C949.739 333.416 948.139 334.803 946.091 335.912C944.086 337.021 941.782 337.576 939.179 337.576C936.192 337.576 933.462 336.808 930.987 335.272C928.512 333.736 926.55 331.581 925.099 328.808C923.691 325.992 922.987 322.771 922.987 319.144C922.987 315.56 923.691 312.381 925.099 309.608C926.55 306.835 928.491 304.701 930.923 303.208C933.398 301.715 936.15 300.968 939.179 300.968ZM950.891 319.272C950.891 317.096 950.464 315.24 949.611 313.704C948.758 312.125 947.606 310.931 946.155 310.12C944.704 309.267 943.147 308.84 941.483 308.84C939.819 308.84 938.283 309.245 936.875 310.056C935.467 310.867 934.315 312.061 933.419 313.64C932.566 315.176 932.139 317.011 932.139 319.144C932.139 321.277 932.566 323.155 933.419 324.776C934.315 326.355 935.467 327.571 936.875 328.424C938.326 329.277 939.862 329.704 941.483 329.704C943.147 329.704 944.704 329.299 946.155 328.488C947.606 327.635 948.758 326.44 949.611 324.904C950.464 323.325 950.891 321.448 950.891 319.272Z" fill="#0F003A"/>
</svg>
