<svg width="1700" height="487" viewBox="0 0 1700 487" fill="none" xmlns="http://www.w3.org/2000/svg">
<path d="M296.329 117.5C296.329 117.5 221.329 111.5 12.8291 0C6.32908 86.333 -4.87092 263.9 2.32908 283.5C11.3291 308 63.3291 426.5 98.3291 439C133.329 451.5 309.829 443.5 386.329 461.5C462.829 479.5 561.329 475.5 606.829 484.5C652.329 493.5 1307.83 464.5 1350.33 461.5C1384.33 459.1 1553.5 424.17 1633.83 407C1669.83 271.333 1752.8 6.2 1648 55C1538 117.5 1447.83 79.5 1034.83 132.5C621.829 185.5 296.329 117.5 296.329 117.5Z" fill="#E4E3FF"/>
</svg>
