<svg width="988" height="715" viewBox="0 0 988 715" fill="none" xmlns="http://www.w3.org/2000/svg">
<g id="undraw_Group_chat_re_frmo 1" clip-path="url(#clip0)">
<g id="chat-guy-right">
<path id="Vector" d="M146.518 506.154C145.708 504.927 144.639 503.893 143.385 503.124C142.132 502.356 140.726 501.871 139.265 501.705C137.805 501.539 136.325 501.695 134.931 502.162C133.537 502.629 132.263 503.396 131.198 504.41L99.4434 488.02L101.417 506.484L131.269 519.218C133.09 520.894 135.462 521.845 137.937 521.889C140.412 521.934 142.817 521.069 144.696 519.459C146.576 517.848 147.8 515.605 148.135 513.152C148.471 510.7 147.896 508.21 146.518 506.154H146.518Z" fill="#A0616A"/>
<path id="Vector_2" d="M118.298 513.586C117.723 513.849 117.1 513.989 116.467 513.996C115.835 514.003 115.209 513.876 114.629 513.625L84.4666 500.541C74.1535 496.069 65.8158 488.003 61.0046 477.843L45.1476 444.372C43.9773 442.869 43.1149 441.149 42.6097 439.313C42.1044 437.476 41.9662 435.557 42.2029 433.667C42.4397 431.776 43.0468 429.951 43.9894 428.295C44.9321 426.64 46.1919 425.186 47.6968 424.018C49.2017 422.849 50.9221 421.989 52.7597 421.486C54.5973 420.983 56.516 420.847 58.4062 421.086C60.2963 421.325 62.1208 421.934 63.7753 422.879C65.4298 423.824 66.8818 425.085 68.0484 426.592L95.9211 478.305L121.658 497.747C122.395 498.306 122.942 499.078 123.226 499.958C123.509 500.838 123.516 501.784 123.245 502.668L120.718 510.827C120.447 511.702 119.916 512.474 119.195 513.039C118.918 513.256 118.617 513.44 118.298 513.586Z" fill="#CCCCCC"/>
<path id="Vector_3" d="M44.4497 405.008C58.0144 405.008 69.0107 394.012 69.0107 380.447C69.0107 366.883 58.0144 355.886 44.4497 355.886C30.885 355.886 19.8887 366.883 19.8887 380.447C19.8887 394.012 30.885 405.008 44.4497 405.008Z" fill="#A0616A"/>
<path id="Vector_4" d="M54.3983 702.644L66.6573 702.643L72.4903 655.355L54.3953 655.356L54.3983 702.644Z" fill="#A0616A"/>
<path id="Vector_5" d="M90.302 714.026L51.7713 714.028L51.7706 699.141L75.4144 699.14C79.3627 699.14 83.1493 700.708 85.9412 703.5C88.7332 706.291 90.3018 710.078 90.302 714.026L90.302 714.026Z" fill="#2F2E41"/>
<path id="Vector_6" d="M14.3983 702.644L26.6573 702.643L32.4903 655.355L14.3953 655.356L14.3983 702.644Z" fill="#A0616A"/>
<path id="Vector_7" d="M50.302 714.026L11.7713 714.028L11.7706 699.141L35.4144 699.14C39.3627 699.14 43.1493 700.708 45.9413 703.5C48.7332 706.291 50.3018 710.078 50.302 714.026L50.302 714.026Z" fill="#2F2E41"/>
<path id="Vector_8" d="M10.1172 689.108C9.69474 688.626 9.38029 688.059 9.19489 687.445C9.00948 686.831 8.95741 686.185 9.04216 685.55L30.5068 524.564L83.8354 533.621L89.5268 530.206L74.8093 682.95C74.6869 683.981 74.2125 684.938 73.4663 685.661C72.7201 686.383 71.7477 686.825 70.7131 686.914L54.5654 688.26C53.9234 688.313 53.2774 688.228 52.671 688.011C52.0647 687.793 51.5121 687.448 51.0507 686.998C50.5893 686.549 50.2299 686.005 49.9966 685.405C49.7634 684.804 49.6619 684.161 49.6989 683.517L53.8796 610.775C53.887 610.652 53.8483 610.53 53.7709 610.433C53.6936 610.336 53.5831 610.272 53.4609 610.252C53.3388 610.232 53.2135 610.258 53.1095 610.325C53.0054 610.392 52.93 610.495 52.8977 610.615L32.2146 687.315C31.9559 688.27 31.3905 689.113 30.6053 689.715C29.8202 690.316 28.859 690.643 27.8698 690.644H13.5029C12.8617 690.644 12.2279 690.507 11.6439 690.242C11.06 689.977 10.5394 689.591 10.1172 689.108Z" fill="#2F2E41"/>
<path id="Vector_9" d="M47.0495 535.833C46.4374 535.278 45.6505 534.956 44.8255 534.922C44.0005 534.887 43.1895 535.143 42.5334 535.644L31.8715 543.937C31.2913 544.39 30.6089 544.693 29.8841 544.82C29.1594 544.948 28.4145 544.895 27.7148 544.667C27.0151 544.44 26.382 544.044 25.871 543.514C25.36 542.985 24.9868 542.338 24.7841 541.631C19.5543 523.315 7.70572 477.213 10.6247 444.764C12.2792 426.372 28.1618 412.393 46.0297 413.566C58.2452 414.381 66.2817 421.427 69.9157 434.51C78.8383 466.632 88.6439 525.554 90.5189 537.041C90.6669 537.932 90.5421 538.847 90.1609 539.666C89.7796 540.485 89.1597 541.169 88.3825 541.629C83.3379 544.658 77.5742 546.28 71.6906 546.327C64.5714 546.327 56.0353 543.848 47.0495 535.833Z" fill="#CCCCCC"/>
<path id="Vector_10" d="M51.0726 547.259C51.192 545.794 50.9886 544.32 50.4769 542.942C49.9652 541.564 49.1575 540.315 48.1108 539.283C47.0641 538.25 45.8037 537.46 44.4186 536.968C43.0334 536.475 41.5572 536.293 40.0938 536.432L25.2219 503.939L15.3804 519.687L31.0117 548.128C31.4095 550.571 32.6896 552.783 34.6094 554.346C36.5292 555.908 38.9554 556.711 41.4281 556.604C43.9009 556.497 46.2485 555.487 48.026 553.764C49.8035 552.042 50.8875 549.727 51.0726 547.259Z" fill="#A0616A"/>
<path id="Vector_11" d="M24.2803 535.692C23.6655 535.545 23.0886 535.27 22.5871 534.885C22.0855 534.5 21.6706 534.014 21.3692 533.459L5.71 504.549C0.354788 494.666 -1.22814 483.174 1.25566 472.211L9.43412 436.088C9.44154 434.183 9.82432 432.298 10.5606 430.541C11.2968 428.784 12.3722 427.19 13.725 425.849C15.0779 424.507 16.6818 423.446 18.4451 422.725C20.2084 422.005 22.0964 421.638 24.0013 421.648C25.9062 421.657 27.7906 422.042 29.5468 422.78C31.3029 423.518 32.8964 424.595 34.2361 425.949C35.5758 427.303 36.6355 428.908 37.3546 430.672C38.0736 432.436 38.438 434.324 38.4268 436.229L28.4453 494.122L36.699 525.302C36.9337 526.197 36.888 527.142 36.5681 528.01C36.2482 528.877 35.6696 529.626 34.9104 530.154L27.8874 535.015C27.134 535.536 26.2397 535.815 25.3237 535.815C24.9723 535.815 24.622 535.774 24.2803 535.692Z" fill="#CCCCCC"/>
<path id="Vector_12" opacity="0.2" d="M36.4343 460.644L27.4343 498.644L40.4343 530.644L31.4343 499.644L36.4343 460.644Z" fill="black"/>
<path id="Vector_13" d="M30.4339 400.644C28.2492 400.685 26.078 400.292 24.0459 399.489C23.1518 399.144 22.2237 398.861 21.3312 398.516C13.4495 395.471 8.25758 387.077 8.07163 378.629C7.88568 370.182 12.2603 361.983 18.7563 356.58C25.2522 351.176 33.6661 348.402 42.0913 347.761C51.1665 347.07 61.3855 349.371 66.4566 356.929C67.8065 358.941 68.7505 361.382 67.9506 363.811C67.711 364.544 67.2832 365.201 66.7098 365.716C64.4451 367.731 62.1873 366.216 59.8786 366.082C56.7054 365.898 53.8553 368.467 52.8309 371.476C51.8065 374.485 52.2575 377.798 53.0846 380.867C53.7147 382.713 54.1119 384.632 54.2671 386.577C54.3338 387.552 54.1504 388.528 53.7341 389.413C53.3179 390.298 52.6826 391.061 51.8885 391.632C49.9056 392.83 47.3016 392.136 45.3175 390.94C43.3334 389.743 41.6191 388.079 39.476 387.199C37.3328 386.318 34.4535 386.513 33.2061 388.466C32.8097 389.176 32.5414 389.951 32.4135 390.755C31.2952 395.849 31.5522 395.549 30.4339 400.644L30.4339 400.644Z" fill="#2F2E41"/>
</g>
<g id="chat-window">
<path id="Vector_14" d="M757.443 230.48H150.443C148.131 230.482 145.914 231.401 144.28 233.036C142.645 234.671 141.725 236.888 141.723 239.2V650.52C141.725 652.832 142.645 655.049 144.28 656.684C145.914 658.319 148.131 659.238 150.443 659.24H757.443C758.704 659.24 759.95 658.966 761.094 658.438C762.239 657.91 763.255 657.139 764.073 656.18C764.142 656.105 764.206 656.025 764.263 655.94C764.784 655.304 765.205 654.592 765.513 653.83C765.952 652.782 766.176 651.656 766.173 650.52V394.47H763.683V650.52C763.684 651.736 763.326 652.926 762.653 653.94C762.055 654.832 761.244 655.561 760.293 656.06C759.412 656.515 758.435 656.752 757.443 656.75H150.443C148.792 656.748 147.208 656.091 146.04 654.923C144.872 653.755 144.215 652.172 144.213 650.52V239.2C144.215 237.548 144.872 235.965 146.04 234.797C147.208 233.629 148.792 232.972 150.443 232.97H757.443C759.097 232.97 760.682 233.626 761.852 234.794C763.022 235.962 763.681 237.547 763.683 239.2V294.47H766.173V239.2C766.17 236.886 765.25 234.668 763.613 233.033C761.976 231.398 759.757 230.48 757.443 230.48Z" fill="#3F3D56"/>
<path id="Vector_15" d="M764.921 265.433H142.964V267.926H764.921V265.433Z" fill="#3F3D56"/>
<path id="Vector_16" d="M164.153 256.658C168.283 256.658 171.632 253.31 171.632 249.18C171.632 245.05 168.283 241.701 164.153 241.701C160.023 241.701 156.675 245.05 156.675 249.18C156.675 253.31 160.023 256.658 164.153 256.658Z" fill="#CCCCCC"/>
<path id="Vector_17" d="M185.654 256.658C189.784 256.658 193.132 253.31 193.132 249.18C193.132 245.05 189.784 241.701 185.654 241.701C181.524 241.701 178.175 245.05 178.175 249.18C178.175 253.31 181.524 256.658 185.654 256.658Z" fill="#CCCCCC"/>
<path id="Vector_18" d="M207.154 256.658C211.284 256.658 214.633 253.31 214.633 249.18C214.633 245.05 211.284 241.701 207.154 241.701C203.024 241.701 199.676 245.05 199.676 249.18C199.676 253.31 203.024 256.658 207.154 256.658Z" fill="#CCCCCC"/>
</g>
<path id="Vector_19" d="M357.365 608.824C354.791 608.812 352.26 608.159 350.002 606.922C347.744 605.686 345.83 603.905 344.434 601.743C343.037 599.58 342.202 597.103 342.004 594.537C341.806 591.97 342.251 589.394 343.299 587.043L361.115 547.293C347.084 534.882 335.855 519.626 328.175 502.54C320.496 485.454 316.541 466.929 316.574 448.197C316.574 375.012 376.114 315.47 449.301 315.47C522.487 315.47 582.028 375.012 582.028 448.197C582.028 521.382 522.487 580.924 449.301 580.924C436.498 580.911 423.765 579.035 411.503 575.356L366.033 606.139C363.478 607.882 360.458 608.818 357.365 608.824ZM449.301 333.99C425.615 333.976 402.511 341.332 383.193 355.036C363.874 368.741 349.297 388.117 341.484 410.477C333.67 432.837 333.006 457.074 339.584 479.828C346.161 502.583 359.655 522.727 378.194 537.469L383.807 541.945L364.637 584.719L408.629 554.937L412.972 556.396C428.664 561.668 445.314 563.464 461.769 561.661C478.224 559.858 494.09 554.498 508.268 545.954C522.445 537.409 534.596 525.884 543.876 512.177C553.157 498.469 559.346 482.908 562.014 466.571C564.683 450.234 563.767 433.512 559.33 417.564C554.894 401.617 547.043 386.824 536.321 374.212C525.599 361.601 512.263 351.471 497.237 344.526C482.211 337.58 465.854 333.985 449.301 333.99Z" fill="#3F3D56"/>
<path id="chat-ball-two" d="M449.301 460.543C459.529 460.543 467.821 452.252 467.821 442.023C467.821 431.795 459.529 423.503 449.301 423.503C439.072 423.503 430.781 431.795 430.781 442.023C430.781 452.252 439.072 460.543 449.301 460.543Z" fill="#3F3D56"/>
<path id="chat-ball-one" d="M396.827 460.543C407.056 460.543 415.347 452.252 415.347 442.023C415.347 431.795 407.056 423.503 396.827 423.503C386.599 423.503 378.307 431.795 378.307 442.023C378.307 452.252 386.599 460.543 396.827 460.543Z" fill="#3F3D56"/>
<path id="chat-ball-three" d="M501.774 460.543C512.003 460.543 520.294 452.252 520.294 442.023C520.294 431.795 512.003 423.503 501.774 423.503C491.546 423.503 483.254 431.795 483.254 442.023C483.254 452.252 491.546 460.543 501.774 460.543Z" fill="#3F3D56"/>
<g id="Group 7">
<path id="Vector_20" d="M915.021 368.722H739.021C736.9 368.722 734.865 367.879 733.365 366.379C731.864 364.878 731.021 362.844 731.021 360.722C731.021 358.6 731.864 356.565 733.365 355.065C734.865 353.565 736.9 352.722 739.021 352.722H915.021C917.143 352.722 919.178 353.565 920.678 355.065C922.178 356.565 923.021 358.6 923.021 360.722C923.021 362.844 922.178 364.878 920.678 366.379C919.178 367.879 917.143 368.722 915.021 368.722Z" fill="#CCCCCC"/>
<path id="Vector_21" d="M800.021 334.722H739.021C736.9 334.722 734.865 333.879 733.365 332.379C731.864 330.878 731.021 328.844 731.021 326.722C731.021 324.6 731.864 322.565 733.365 321.065C734.865 319.565 736.9 318.722 739.021 318.722H800.021C802.143 318.722 804.178 319.565 805.678 321.065C807.179 322.565 808.021 324.6 808.021 326.722C808.021 328.844 807.179 330.878 805.678 332.379C804.178 333.879 802.143 334.722 800.021 334.722Z" fill="#CCCCCC"/>
<path id="Vector_22" d="M659.305 378.47C678.082 378.47 693.305 363.248 693.305 344.47C693.305 325.692 678.082 310.47 659.305 310.47C640.527 310.47 625.305 325.692 625.305 344.47C625.305 363.248 640.527 378.47 659.305 378.47Z" fill="#22FFCA"/>
<path id="Vector_23" d="M932.663 292.47H615.663C611.156 292.476 606.836 294.269 603.649 297.456C600.463 300.643 598.669 304.963 598.663 309.47V379.47C598.669 383.977 600.463 388.297 603.649 391.484C606.836 394.67 611.156 396.464 615.663 396.47H932.663C937.17 396.464 941.49 394.67 944.677 391.484C947.864 388.297 949.657 383.977 949.663 379.47V309.47C949.657 304.963 947.864 300.643 944.677 297.456C941.49 294.269 937.17 292.476 932.663 292.47ZM947.663 379.47C947.658 383.447 946.076 387.259 943.264 390.071C940.452 392.883 936.64 394.465 932.663 394.47H615.663C611.686 394.465 607.874 392.883 605.062 390.071C602.25 387.259 600.668 383.447 600.663 379.47V309.47C600.668 305.493 602.25 301.681 605.062 298.869C607.874 296.057 611.686 294.475 615.663 294.47H932.663C936.64 294.475 940.452 296.057 943.264 298.869C946.076 301.681 947.658 305.493 947.663 309.47V379.47Z" fill="#3F3D56"/>
<path id="Vector_24" d="M947.663 320.47C960.366 320.47 970.663 310.173 970.663 297.47C970.663 284.767 960.366 274.47 947.663 274.47C934.961 274.47 924.663 284.767 924.663 297.47C924.663 310.173 934.961 320.47 947.663 320.47Z" fill="#22FFCA"/>
<path id="Vector_25" d="M946.956 310.405C946.863 310.312 946.789 310.202 946.739 310.081C946.689 309.959 946.663 309.829 946.663 309.698V284.242C946.663 283.977 946.768 283.723 946.956 283.535C947.143 283.348 947.398 283.242 947.663 283.242C947.928 283.242 948.182 283.348 948.37 283.535C948.558 283.723 948.663 283.977 948.663 284.242V309.698C948.663 309.896 948.604 310.089 948.494 310.253C948.385 310.418 948.228 310.546 948.046 310.622C947.863 310.697 947.662 310.717 947.468 310.679C947.274 310.64 947.096 310.545 946.956 310.405Z" fill="white"/>
<path id="Vector_26" d="M934.228 297.677C934.088 297.537 933.993 297.359 933.954 297.165C933.916 296.971 933.936 296.77 934.011 296.588C934.087 296.405 934.215 296.249 934.38 296.139C934.544 296.029 934.737 295.97 934.935 295.97H960.391C960.656 295.97 960.911 296.076 961.098 296.263C961.286 296.451 961.391 296.705 961.391 296.97C961.391 297.235 961.286 297.49 961.098 297.677C960.911 297.865 960.656 297.97 960.391 297.97H934.935C934.804 297.97 934.674 297.944 934.553 297.894C934.431 297.844 934.321 297.77 934.228 297.677Z" fill="white"/>
</g>
<path id="chat-woman-right-hair" d="M937.969 437.272C930.222 429.416 920.848 423.354 910.506 419.513C903.867 417.053 896.641 415.534 889.701 416.93C882.76 418.327 876.196 423.128 874.26 429.938C872.677 435.506 874.312 441.502 876.769 446.744C879.226 451.985 882.506 456.846 884.493 462.283C886.521 467.831 887.131 473.798 886.267 479.641C885.404 485.485 883.095 491.02 879.55 495.745C876.004 500.469 871.335 504.234 865.966 506.696C860.597 509.159 854.698 510.241 848.804 509.846C855.624 510.76 861.91 513.965 868.575 515.671C875.241 517.376 883.108 517.261 888.061 512.485C893.302 507.433 893.407 499.218 893.154 491.943C892.777 481.128 892.401 470.313 892.024 459.498C891.832 453.982 891.668 448.29 893.657 443.142C895.646 437.994 900.373 433.487 905.892 433.534C910.074 433.569 913.776 436.103 917.13 438.602C920.484 441.1 924.035 443.766 928.201 444.138C932.367 444.51 937.124 441.426 936.812 437.255L937.969 437.272Z" fill="#2F2E41"/>
<g id="char-woman-right">
<path id="Vector_27" d="M974.192 713.223C974.192 714.628 954.492 713.767 930.192 713.767C905.891 713.767 886.192 714.628 886.192 713.223C886.192 711.819 905.891 700.68 930.192 700.68C954.492 700.68 974.192 711.819 974.192 713.223Z" fill="#3F3D56"/>
<path id="Vector_28" d="M844.165 698.671H867.809V713.558H829.278C829.278 709.61 830.847 705.824 833.638 703.032C836.43 700.24 840.217 698.671 844.165 698.671Z" fill="#2F2E41"/>
<path id="Vector_29" d="M975.197 603.177H927.187C927.187 604.557 877.707 605.677 877.707 605.677C876.93 606.261 876.222 606.932 875.597 607.677C873.717 609.918 872.69 612.751 872.696 615.677V617.677C872.698 620.991 874.015 624.17 876.359 626.514C878.703 628.858 881.882 630.175 885.196 630.177H975.197C978.511 630.174 981.688 628.856 984.032 626.512C986.376 624.169 987.694 620.991 987.697 617.677V615.677C987.692 612.363 986.373 609.186 984.03 606.843C981.687 604.5 978.51 603.181 975.197 603.177Z" fill="#3F3D56"/>
<path id="Vector_30" d="M937.192 629.68H924.192V713.68H937.192V629.68Z" fill="#3F3D56"/>
<path id="Vector_31" d="M934.862 490.608C950.326 490.608 962.862 478.072 962.862 462.608C962.862 447.144 950.326 434.608 934.862 434.608C919.398 434.608 906.862 447.144 906.862 462.608C906.862 478.072 919.398 490.608 934.862 490.608Z" fill="#2F2E41"/>
<path id="Vector_32" d="M865.182 702.175L852.922 702.174L847.089 654.886L865.184 654.887L865.182 702.175Z" fill="#FFB8B8"/>
<path id="Vector_33" d="M846.044 695.332L834.347 691.661L842.939 644.796L860.203 650.214L846.044 695.332Z" fill="#FFB8B8"/>
<path id="Vector_34" d="M827.041 685.697L849.6 692.777L845.142 706.981L808.379 695.444C809.561 691.677 812.192 688.534 815.691 686.706C819.191 684.878 823.273 684.515 827.041 685.697Z" fill="#2F2E41"/>
<path id="Vector_35" d="M942.363 594.979C942.08 592.596 941.571 590.246 940.843 587.959L938.553 585.079L932.593 577.599L932.333 577.609C931.893 577.629 930.063 577.729 927.233 577.949H927.203C925.453 578.089 923.313 578.269 920.883 578.499C920.243 578.569 919.573 578.629 918.883 578.699V589.139H931.383C931.99 589.14 932.577 589.361 933.033 589.763C933.489 590.164 933.784 590.717 933.863 591.319C933.873 591.429 933.883 591.529 933.883 591.639C933.883 592.302 933.619 592.938 933.15 593.407C932.682 593.875 932.046 594.139 931.383 594.139H858.783C857.858 594.753 856.969 595.421 856.123 596.139C853.565 598.119 851.722 600.878 850.873 603.999C846.633 622.639 838.903 657.399 836.623 667.609C836.457 668.378 836.495 669.177 836.731 669.928C836.968 670.678 837.396 671.354 837.973 671.889C838.398 672.286 838.898 672.595 839.443 672.799L848.463 676.179C848.834 676.316 849.22 676.407 849.613 676.449C849.663 676.449 849.703 676.459 849.753 676.459C849.846 676.467 849.939 676.471 850.033 676.469C850.945 676.465 851.834 676.187 852.586 675.669C853.337 675.152 853.914 674.42 854.243 673.569L861.363 654.889L872.333 626.089L876.673 614.699C881.703 615.879 923.903 625.219 938.033 610.169C939.427 608.686 940.526 606.952 941.273 605.059C942.462 601.84 942.836 598.378 942.363 594.979Z" fill="#2F2E41"/>
<path id="Vector_36" d="M954.602 597.699C954.383 596.809 954.133 595.889 953.843 594.959L945.593 584.599L945.333 584.609C944.812 584.639 942.343 584.769 938.553 585.079C934.253 585.439 928.243 586.019 921.493 586.929C921.293 586.949 921.083 586.979 920.883 587.009C920.223 587.099 919.553 587.189 918.883 587.289V589.139H931.383C931.99 589.14 932.577 589.362 933.033 589.763C933.489 590.164 933.784 590.717 933.863 591.319C933.873 591.429 933.883 591.529 933.883 591.639C933.883 592.302 933.619 592.938 933.15 593.407C932.682 593.875 932.046 594.139 931.383 594.139H887.203C885.273 594.769 883.413 595.429 881.633 596.139C872.293 599.839 865.303 604.689 863.873 610.999C863.393 613.119 862.863 615.449 862.303 617.929C860.223 627.149 857.693 638.439 855.403 648.699V648.709C854.933 650.829 854.463 652.889 854.013 654.889C852.103 663.489 850.483 670.779 849.623 674.609C849.603 674.719 849.583 674.819 849.563 674.929V674.949C849.463 675.724 849.559 676.511 849.843 677.239L849.853 677.249V677.259C850.128 677.956 850.575 678.572 851.153 679.049C851.539 679.368 851.975 679.621 852.443 679.799L861.463 683.179C861.965 683.367 862.497 683.465 863.033 683.469C863.784 683.471 864.524 683.282 865.183 682.919C866.128 682.407 866.859 681.573 867.243 680.569L886.663 629.609L889.673 621.699C894.703 622.879 936.903 632.209 951.033 617.169C953.824 614.148 955.417 610.211 955.513 606.099C955.611 603.27 955.305 600.441 954.602 597.699Z" fill="#2F2E41"/>
<path id="Vector_37" d="M953.493 509.479C953.333 509.289 953.163 509.099 952.983 508.919C950.319 506.119 947.03 503.99 943.386 502.705C939.741 501.421 935.843 501.018 932.013 501.529C928.671 501.968 925.361 502.62 922.102 503.479C917.894 504.561 914.041 506.722 910.923 509.749C908.494 512.104 906.581 514.938 905.306 518.071C904.03 521.204 903.42 524.568 903.513 527.949C903.553 529.319 903.562 530.719 903.543 532.139C903.543 532.799 903.533 533.469 903.523 534.139H913.383C913.811 534.138 914.237 534.188 914.653 534.289C915.856 534.577 916.928 535.261 917.695 536.231C918.462 537.202 918.881 538.402 918.883 539.639V586.159C919.553 586.349 920.223 586.539 920.883 586.739C921.093 586.809 921.293 586.869 921.493 586.929C921.723 586.999 921.953 587.069 922.173 587.139C924.203 587.769 926.186 588.436 928.123 589.139H931.383C931.99 589.14 932.577 589.362 933.033 589.763C933.489 590.164 933.784 590.717 933.863 591.319C934.543 591.589 935.203 591.859 935.853 592.129C938.163 593.089 940.353 594.049 942.363 594.979C945.073 596.219 947.483 597.399 949.503 598.429C950.138 598.753 950.84 598.924 951.553 598.929C952.489 598.926 953.4 598.625 954.153 598.069C954.309 597.954 954.459 597.83 954.603 597.699C955.138 597.197 955.542 596.573 955.781 595.879C956.02 595.185 956.086 594.444 955.973 593.719C954.94 585.864 954.639 577.93 955.073 570.019C955.353 563.369 955.953 556.549 956.733 549.959C957.153 546.389 957.623 542.889 958.113 539.519C958.583 536.299 959.083 533.209 959.573 530.289C960.216 526.586 960.002 522.786 958.948 519.178C957.894 515.571 956.028 512.253 953.493 509.479Z" fill="#22FFCA"/>
<path id="Vector_38" d="M912.503 510.299C911.99 510.079 911.462 509.895 910.923 509.749C908.258 509.032 905.424 509.296 902.938 510.495C900.452 511.694 898.48 513.747 897.383 516.279L890.513 532.139L889.653 534.139H913.383C913.811 534.138 914.237 534.188 914.653 534.289L915.453 532.439L918.493 525.419C919.7 522.62 919.748 519.455 918.625 516.621C917.502 513.786 915.3 511.513 912.503 510.299Z" fill="#22FFCA"/>
<path id="Vector_39" d="M933.839 493.721C947.403 493.721 958.4 482.724 958.4 469.16C958.4 455.595 947.403 444.599 933.839 444.599C920.274 444.599 909.278 455.595 909.278 469.16C909.278 482.724 920.274 493.721 933.839 493.721Z" fill="#FFB8B8"/>
<path id="Vector_40" d="M908.836 457.093C920.47 464.194 933.585 468.516 947.162 469.721L943.122 464.88C946.063 465.968 949.159 466.583 952.293 466.701C955.423 466.653 958.703 465.447 960.479 462.87C961.271 461.588 961.742 460.134 961.851 458.632C961.96 457.129 961.704 455.622 961.104 454.24C959.873 451.483 957.957 449.087 955.538 447.28C951.25 443.888 946.19 441.61 940.808 440.648C935.427 439.686 929.891 440.071 924.694 441.767C921.129 442.833 917.936 444.881 915.481 447.677C913.153 450.549 908.67 453.108 909.862 456.608L908.836 457.093Z" fill="#2F2E41"/>
<path id="Vector_41" d="M958.113 539.519L944.093 539.899L943.073 549.749L942.843 552.029L920.883 561.889L918.883 562.789V580.319L920.883 579.749L927.203 577.949H927.233L955.073 570.019L955.393 569.929C957.642 569.28 959.622 567.922 961.038 566.057C962.454 564.192 963.231 561.92 963.253 559.579L963.323 547.949L963.383 539.379L958.113 539.519Z" fill="#FFB8B8"/>
<path id="Vector_42" d="M962.673 520.039C962.486 516.995 961.097 514.149 958.812 512.128C956.527 510.108 953.533 509.077 950.488 509.264C947.443 509.451 944.598 510.84 942.577 513.125C940.556 515.41 939.526 518.405 939.713 521.449L941.243 546.409C941.284 547.066 941.47 547.706 941.786 548.283C942.102 548.86 942.541 549.361 943.073 549.749C943.918 550.38 944.96 550.688 946.013 550.619L956.733 549.959L959.983 549.759C960.575 549.73 961.155 549.581 961.688 549.322C962.22 549.062 962.695 548.697 963.083 548.249C963.169 548.154 963.249 548.054 963.323 547.949C963.958 547.099 964.27 546.049 964.203 544.989L962.673 520.039Z" fill="#22FFCA"/>
<path id="Vector_43" d="M922.173 587.139H920.883V587.009C920.223 587.099 919.553 587.189 918.883 587.289V589.139H928.123C926.183 588.439 924.199 587.773 922.173 587.139ZM922.173 587.139H920.883V587.009C920.223 587.099 919.553 587.189 918.883 587.289V589.139H928.123C926.183 588.439 924.199 587.773 922.173 587.139ZM931.383 587.139H920.883V539.639C920.879 538.013 920.348 536.432 919.369 535.134C918.389 533.835 917.015 532.89 915.453 532.439C914.781 532.237 914.084 532.136 913.383 532.139H824.383C822.394 532.142 820.488 532.933 819.082 534.339C817.676 535.745 816.885 537.651 816.883 539.639V588.639C816.884 590.628 817.674 592.535 819.08 593.942C820.487 595.348 822.394 596.139 824.383 596.139H931.383C932.491 596.137 933.559 595.727 934.383 594.988C935.208 594.248 935.731 593.23 935.853 592.129C935.873 591.967 935.883 591.803 935.883 591.639C935.881 590.446 935.406 589.303 934.563 588.459C933.719 587.616 932.576 587.141 931.383 587.139ZM933.883 591.639C933.883 592.302 933.619 592.938 933.15 593.407C932.681 593.875 932.046 594.139 931.383 594.139H824.383C822.924 594.138 821.526 593.559 820.495 592.527C819.463 591.496 818.884 590.098 818.883 588.639V539.639C818.884 538.181 819.463 536.782 820.495 535.751C821.526 534.72 822.924 534.14 824.383 534.139H913.383C913.811 534.138 914.237 534.188 914.653 534.289C915.856 534.577 916.928 535.261 917.695 536.231C918.462 537.202 918.881 538.402 918.883 539.639V589.139H931.383C931.99 589.14 932.577 589.362 933.033 589.763C933.489 590.164 933.784 590.717 933.863 591.319C933.872 591.429 933.883 591.529 933.883 591.639ZM922.173 587.139H920.883V587.009C920.223 587.099 919.553 587.189 918.883 587.289V589.139H928.123C926.183 588.439 924.199 587.773 922.173 587.139Z" fill="#3F3D56"/>
<path id="Vector_44" d="M868.88 570.141C872.193 570.141 874.88 567.454 874.88 564.141C874.88 560.827 872.193 558.141 868.88 558.141C865.566 558.141 862.88 560.827 862.88 564.141C862.88 567.454 865.566 570.141 868.88 570.141Z" fill="#22FFCA"/>
</g>
<g id="chat-woman-top">
<path id="Vector_45" d="M332.963 71.368C332.941 71.8248 332.955 72.2828 333.004 72.7375L301.602 99.0915L292.238 95.7009L285.274 109.165L305.747 118.91L340.077 80.3863C341.811 80.7008 343.599 80.4801 345.204 79.7535C346.809 79.027 348.155 77.829 349.062 76.3189C349.97 74.8089 350.396 73.0584 350.285 71.3001C350.173 69.5418 349.529 67.8592 348.438 66.476C347.347 65.0928 345.86 64.0745 344.176 63.5566C342.492 63.0388 340.691 63.0458 339.011 63.5769C337.331 64.1079 335.853 65.1378 334.772 66.5295C333.692 67.9212 333.061 69.6089 332.963 71.3679L332.963 71.368Z" fill="#FFB8B8"/>
<path id="Vector_46" d="M290.848 115.623L260.524 104.677C257.74 103.673 255.469 101.603 254.211 98.9239C252.953 96.2449 252.811 93.1759 253.816 90.392C254.821 87.6081 256.89 85.3374 259.569 84.0794C262.248 82.8215 265.317 82.6793 268.101 83.6841L298.425 94.6294C298.885 94.7952 299.307 95.0499 299.668 95.3789C300.029 95.7079 300.322 96.1048 300.529 96.5469C300.737 96.9891 300.855 97.4678 300.878 97.9557C300.9 98.4437 300.827 98.9313 300.661 99.3907L295.609 113.387C295.273 114.314 294.583 115.07 293.691 115.489C292.798 115.908 291.776 115.956 290.848 115.623V115.623Z" fill="#CCCCCC"/>
<path id="Vector_47" d="M268.639 222.252L278.773 222.251L283.594 183.161L268.637 183.162L268.639 222.252Z" fill="#FFB8B8"/>
<path id="Vector_48" d="M298.318 231.661L266.468 231.662L266.467 219.356L286.012 219.355C289.276 219.355 292.406 220.652 294.714 222.959C297.022 225.267 298.318 228.397 298.318 231.661L298.318 231.661Z" fill="#2F2E41"/>
<path id="Vector_49" d="M243.593 209.16L251.883 214.989L278.311 185.786L266.076 177.184L243.593 209.16Z" fill="#FFB8B8"/>
<path id="Vector_50" d="M261.459 231.929L235.404 213.609L242.482 203.543L258.471 214.784C261.14 216.661 262.955 219.522 263.516 222.737C264.076 225.953 263.337 229.259 261.459 231.929L261.459 231.929Z" fill="#2F2E41"/>
<path id="Vector_51" d="M290.815 151.836C290.815 151.836 316.105 148.852 311.566 165.264C307.027 181.675 256.445 195.849 256.445 195.849L290.815 151.836Z" fill="#FFB8B8"/>
<path id="Vector_52" d="M273.407 68.0968C284.62 68.0968 293.71 59.0069 293.71 47.7939C293.71 36.5809 284.62 27.491 273.407 27.491C262.194 27.491 253.104 36.5809 253.104 47.7939C253.104 59.0069 262.194 68.0968 273.407 68.0968Z" fill="#FFB8B8"/>
<path id="Vector_53" d="M208.66 192.488C197.107 179.036 193.064 158.39 211.488 141.219C216.038 137.083 221.19 133.661 226.768 131.072L241.616 89.5467C243.159 85.2104 245.987 81.4475 249.723 78.76C253.459 76.0725 257.926 74.5881 262.527 74.505C266.995 74.3121 271.413 75.5072 275.175 77.9262C278.936 80.3451 281.856 83.8692 283.534 88.0145C285.347 92.2316 285.555 96.9666 284.117 101.326C279.697 115.091 273.893 128.373 266.792 140.967L267.56 147.109L305.092 150.445L304.742 151.014C304.559 151.311 286.19 179.298 262.692 197.874C254.657 204.226 246.348 206.858 238.507 206.857C226.616 206.857 215.801 200.803 208.66 192.488Z" fill="#CCCCCC"/>
<path id="Vector_54" d="M205.118 54.1634C208.709 49.8832 210.25 44.2848 211.49 38.8363C213.451 30.2155 214.968 21.3013 219.325 13.6082C223.681 5.91521 231.688 -0.459219 240.515 0.0259912C249.293 0.508431 256.389 7.57012 260.156 15.6049C261.068 15.2507 262.044 15.0919 263.022 15.1391C263.999 15.1862 264.956 15.4381 265.829 15.8785C268.544 17.3651 269.559 21.5907 267.299 23.7061C269.676 22.5744 272.264 21.9556 274.896 21.89C277.528 21.8244 280.143 22.3134 282.574 23.3253C285.699 24.6557 288.396 26.8222 290.369 29.5865C292.342 32.3509 293.515 35.6059 293.757 38.9935C293.852 40.3685 293.663 41.7482 293.203 43.0473C292.742 44.3463 292.02 45.537 291.081 46.5454C287.185 50.5556 281.676 49.1724 276.777 48.1508C272.15 47.1859 266.514 46.9254 263.907 51.3341C262.88 53.1712 262.592 55.331 263.103 57.3728C264.102 61.7739 267.36 64.8395 270.522 67.7733L271.039 68.7338C259.877 70.9104 247.689 63.2877 244.761 52.2993C241.833 41.311 248.612 28.6343 259.377 24.9686C258.661 24.9909 257.951 24.8216 257.322 24.478C256.693 24.1344 256.167 23.6291 255.799 23.0142C255.43 22.3994 255.233 21.6973 255.226 20.9805C255.22 20.2638 255.405 19.5584 255.763 18.9371C252.783 17.2678 249.411 16.4265 245.996 16.5004C240.436 16.8652 235.624 20.8233 232.73 25.5853C229.836 30.3475 228.526 35.8748 227.198 41.2868C225.871 46.6988 224.435 52.2143 221.341 56.8488C219.198 60.0586 216.334 62.7232 212.978 64.6298C209.622 66.5364 205.867 67.6323 202.013 67.83C198.158 68.0277 194.311 67.3218 190.778 65.7685C187.245 64.2153 184.123 61.8577 181.663 58.884C185.551 60.7692 189.95 61.3284 194.186 60.4758C198.422 59.6233 202.262 57.406 205.118 54.1634Z" fill="#2F2E41"/>
<path id="Vector_55" d="M354.238 109.494C370.537 109.494 383.75 96.2807 383.75 79.9818C383.75 63.6829 370.537 50.47 354.238 50.47C337.939 50.47 324.726 63.6829 324.726 79.9818C324.726 96.2807 337.939 109.494 354.238 109.494Z" fill="#22FFCA"/>
<path id="Vector_56" d="M353.331 96.5791C353.211 96.4601 353.117 96.3187 353.052 96.163C352.988 96.0073 352.955 95.8404 352.955 95.6718V63.0088C352.955 62.6685 353.09 62.3422 353.331 62.1016C353.571 61.861 353.898 61.7258 354.238 61.7258C354.578 61.7258 354.904 61.861 355.145 62.1016C355.386 62.3422 355.521 62.6685 355.521 63.0088V95.6718C355.521 95.9256 355.446 96.1736 355.305 96.3846C355.164 96.5956 354.963 96.76 354.729 96.8571C354.494 96.9542 354.236 96.9797 353.988 96.9302C353.739 96.8807 353.51 96.7585 353.331 96.5791H353.331Z" fill="white"/>
<path id="Vector_57" d="M336.999 80.2477C336.82 80.0682 336.698 79.8396 336.648 79.5907C336.599 79.3418 336.624 79.0839 336.721 78.8494C336.818 78.615 336.983 78.4146 337.194 78.2737C337.405 78.1327 337.653 78.0574 337.907 78.0574H370.57C370.91 78.0574 371.236 78.1926 371.477 78.4332C371.717 78.6738 371.853 79.0001 371.853 79.3404C371.853 79.6807 371.717 80.007 371.477 80.2476C371.236 80.4882 370.91 80.6234 370.57 80.6234H337.907C337.738 80.6237 337.571 80.5906 337.415 80.5261C337.26 80.4616 337.118 80.367 336.999 80.2477Z" fill="white"/>
<path id="Vector_58" d="M333.98 99.7214C333.766 100.125 333.584 100.546 333.436 100.979L293.81 111.487L286.775 104.437L274.748 113.664L289.138 131.188L336.587 110.908C338.022 111.93 339.735 112.49 341.496 112.515C343.258 112.539 344.985 112.027 346.449 111.046C347.912 110.065 349.042 108.661 349.688 107.022C350.335 105.383 350.467 103.586 350.067 101.871C349.667 100.155 348.755 98.6012 347.45 97.4167C346.146 96.2322 344.512 95.4728 342.766 95.2395C341.02 95.0062 339.244 95.31 337.674 96.1106C336.105 96.9112 334.817 98.1706 333.98 99.7213L333.98 99.7214Z" fill="#FFB8B8"/>
<path id="Vector_59" d="M277.048 121.879L254.252 99.0826C253.213 98.047 252.388 96.8167 251.825 95.462C251.262 94.1073 250.971 92.6549 250.97 91.1878C250.969 89.7207 251.257 88.2677 251.818 86.9121C252.379 85.5564 253.201 84.3247 254.239 83.2873C255.276 82.2499 256.508 81.4273 257.864 80.8664C259.219 80.3056 260.672 80.0175 262.139 80.0188C263.606 80.0201 265.059 80.3106 266.413 80.8737C267.768 81.4369 268.999 82.2617 270.034 83.3008L292.83 106.097C293.176 106.442 293.45 106.852 293.637 107.304C293.824 107.755 293.92 108.239 293.92 108.727C293.92 109.215 293.824 109.699 293.637 110.15C293.45 110.602 293.176 111.012 292.83 111.357L282.309 121.879C281.611 122.575 280.665 122.966 279.679 122.966C278.693 122.966 277.747 122.575 277.048 121.879V121.879Z" fill="#CCCCCC"/>
</g>
</g>
<defs>
<clipPath id="clip0">
<rect width="987.587" height="714.028" fill="white" transform="translate(0.109375)"/>
</clipPath>
</defs>
</svg>
